<svg width="28" height="28" viewBox="0 0 28 28" fill="none" xmlns="http://www.w3.org/2000/svg">
<path d="M7.23077 8.46192C6.90435 8.46192 6.5913 8.59159 6.36049 8.82241C6.12967 9.05323 6 9.36629 6 9.69272V20.77C6 21.0964 6.12967 21.4095 6.36049 21.6403C6.5913 21.8711 6.90435 22.0008 7.23077 22.0008H20.7692C21.0957 22.0008 21.4087 21.8711 21.6395 21.6403C21.8703 21.4095 22 21.0964 22 20.77V9.69272C22 9.36629 21.8703 9.05323 21.6395 8.82241C21.4087 8.59159 21.0957 8.46192 20.7692 8.46192H18.3077" stroke="#8E919C" stroke-width="1.6" stroke-linecap="round" stroke-linejoin="round"/>
<path d="M6 13.3848H22" stroke="#8E919C" stroke-width="1.6" stroke-linecap="round" stroke-linejoin="round"/>
<path d="M9.69238 6V10.9232" stroke="#8E919C" stroke-width="1.6" stroke-linecap="round" stroke-linejoin="round"/>
<path d="M18.3076 6V10.9232" stroke="#8E919C" stroke-width="1.6" stroke-linecap="round" stroke-linejoin="round"/>
<path d="M9.69238 8.46192H15.8462" stroke="#8E919C" stroke-width="1.6" stroke-linecap="round" stroke-linejoin="round"/>
</svg>
