<svg width="34" height="32" viewBox="0 0 34 32" fill="none" xmlns="http://www.w3.org/2000/svg">
<path d="M6.5 26.0909H7.13134C7.68634 26.0909 8.13974 26.5442 8.11589 27.0987C8.05816 28.4406 7.88944 28.8725 7.55428 29.6753C7.28739 30.3146 7.76612 30.99 8.44453 30.8497C10.3493 30.4556 12.5719 29.2408 13.9385 26.6744C14.1239 26.3261 14.4775 26.0909 14.872 26.0909H24.5C26.7091 26.0909 28.5 24.3 28.5 22.0909V11C28.5 8.79086 26.7091 7 24.5 7H6.5C4.29086 7 2.5 8.79087 2.5 11V22.0909C2.5 24.3 4.29086 26.0909 6.5 26.0909Z" fill="#2276FF"/>
<circle cx="26" cy="8" r="6.8" fill="#2276FF" stroke="#EEF1F4" stroke-width="1.6"/>
<path d="M26.0049 5.00488L26.0049 11.0049" stroke="#EEF1F4" stroke-width="1.3" stroke-linecap="round"/>
<path d="M23 8H29" stroke="#EEF1F4" stroke-width="1.3" stroke-linecap="round"/>
</svg>
