<svg width="28" height="28" viewBox="0 0 28 28" fill="none" xmlns="http://www.w3.org/2000/svg">
<path d="M22 14C22 15.5822 21.5308 17.129 20.6518 18.4446C19.7727 19.7602 18.5233 20.7855 17.0615 21.391C15.5997 21.9965 13.9911 22.155 12.4393 21.8463C10.8874 21.5376 9.46197 20.7757 8.34315 19.6569C7.22433 18.538 6.4624 17.1126 6.15372 15.5607C5.84504 14.0089 6.00347 12.4003 6.60897 10.9385C7.21447 9.47672 8.23985 8.2273 9.55544 7.34824C10.871 6.46919 12.4178 6 14 6" stroke="#8E919C" stroke-width="1.6" stroke-linecap="round" stroke-linejoin="round"/>
<path d="M18.3075 6L12.1536 12.1538L10.9229 17.0769L15.8459 15.8462L21.9998 9.69231" stroke="#8E919C" stroke-width="1.6" stroke-linecap="round" stroke-linejoin="round"/>
</svg>
