<svg width="32" height="32" viewBox="0 0 32 32" fill="none" xmlns="http://www.w3.org/2000/svg">
<path d="M9.23077 10.4617C8.90435 10.4617 8.5913 10.5913 8.36048 10.8222C8.12967 11.053 8 11.366 8 11.6924V22.7694C8 23.0958 8.12967 23.4088 8.36048 23.6396C8.5913 23.8705 8.90435 24.0001 9.23077 24.0001H22.7692C23.0957 24.0001 23.4087 23.8705 23.6395 23.6396C23.8703 23.4088 24 23.0958 24 22.7694V11.6924C24 11.366 23.8703 11.053 23.6395 10.8222C23.4087 10.5913 23.0957 10.4617 22.7692 10.4617H20.3077" fill="#2276FF"/>
<path d="M9.23077 10.4617C8.90435 10.4617 8.5913 10.5913 8.36048 10.8222C8.12967 11.053 8 11.366 8 11.6924V22.7694C8 23.0958 8.12967 23.4088 8.36048 23.6396C8.5913 23.8705 8.90435 24.0001 9.23077 24.0001H22.7692C23.0957 24.0001 23.4087 23.8705 23.6395 23.6396C23.8703 23.4088 24 23.0958 24 22.7694V11.6924C24 11.366 23.8703 11.053 23.6395 10.8222C23.4087 10.5913 23.0957 10.4617 22.7692 10.4617H20.3077" stroke="#2276FF" stroke-width="1.6" stroke-linecap="round" stroke-linejoin="round"/>
<path d="M11.6914 8V12.9231" stroke="#2276FF" stroke-width="1.6" stroke-linecap="round" stroke-linejoin="round"/>
<path d="M20.3066 8V12.9231" stroke="#2276FF" stroke-width="1.6" stroke-linecap="round" stroke-linejoin="round"/>
<path d="M11.6914 10.4617H17.8453" stroke="#2276FF" stroke-width="1.6" stroke-linecap="round" stroke-linejoin="round"/>
<path d="M11.6925 17.2308C12.0324 17.2308 12.3079 16.9553 12.3079 16.6154C12.3079 16.2755 12.0324 16 11.6925 16C11.3527 16 11.0771 16.2755 11.0771 16.6154C11.0771 16.9553 11.3527 17.2308 11.6925 17.2308Z" fill="#EDF7FF" stroke="#EDF7FF" stroke-width="1.6" stroke-linecap="round" stroke-linejoin="round"/>
<path d="M16.0002 17.2308C16.34 17.2308 16.6155 16.9553 16.6155 16.6154C16.6155 16.2755 16.34 16 16.0002 16C15.6603 16 15.3848 16.2755 15.3848 16.6154C15.3848 16.9553 15.6603 17.2308 16.0002 17.2308Z" fill="#EDF7FF" stroke="#EDF7FF" stroke-width="1.6" stroke-linecap="round" stroke-linejoin="round"/>
<path d="M20.3078 17.2308C20.6476 17.2308 20.9232 16.9553 20.9232 16.6154C20.9232 16.2755 20.6476 16 20.3078 16C19.9679 16 19.6924 16.2755 19.6924 16.6154C19.6924 16.9553 19.9679 17.2308 20.3078 17.2308Z" fill="#EDF7FF" stroke="#EDF7FF" stroke-width="1.6" stroke-linecap="round" stroke-linejoin="round"/>
<path d="M11.6925 20.9232C12.0324 20.9232 12.3079 20.6476 12.3079 20.3078C12.3079 19.9679 12.0324 19.6924 11.6925 19.6924C11.3527 19.6924 11.0771 19.9679 11.0771 20.3078C11.0771 20.6476 11.3527 20.9232 11.6925 20.9232Z" fill="#EDF7FF" stroke="#EDF7FF" stroke-width="1.6" stroke-linecap="round" stroke-linejoin="round"/>
</svg>
