<svg width="18" height="18" viewBox="0 0 18 18" fill="none" xmlns="http://www.w3.org/2000/svg">
<path d="M3.19922 8.80005H11.1992" stroke="#0A55EB" stroke-width="1.6" stroke-linecap="round"/>
<path d="M3.19922 12H11.1992" stroke="#0A55EB" stroke-width="1.6" stroke-linecap="round"/>
<path d="M1.59961 0.799805H8.05078C8.28812 0.799859 8.51308 0.905572 8.66504 1.08789L10.1855 2.91211L11.8145 4.86719C11.9342 5.01086 11.9999 5.19189 12 5.37891V14.4004C11.9998 14.842 11.6418 15.2001 11.2002 15.2002H1.59961C1.15809 15.2 0.800015 14.8419 0.799805 14.4004V1.59961C0.800016 1.15809 1.15809 0.800016 1.59961 0.799805Z" stroke="#0A55EB" stroke-width="1.6"/>
<path d="M8 0.800049L12 5.60005H8V0.800049Z" fill="#0A55EB"/>
<rect x="7.2" y="7.2" width="9.6" height="9.6" rx="4.8" fill="#0A55EB" stroke="#F9F9F9" stroke-width="1.6"/>
<path d="M11.0078 10.4643C11.1005 10.1554 11.3556 9.92246 11.6717 9.85814L11.7447 9.84328C11.8847 9.81479 12.0292 9.81672 12.1684 9.84894L12.2189 9.86063C12.4959 9.92474 12.7259 10.1167 12.8386 10.3778C12.9365 10.6046 12.9362 10.8619 12.8378 11.0886L12.8165 11.1376C12.7496 11.2917 12.6455 11.4269 12.5137 11.531L12.1907 11.7862C12.1342 11.8308 12.0835 11.8821 12.0397 11.9392C11.9228 12.0914 11.8594 12.278 11.8594 12.47V12.5831" stroke="#F9F9F9" stroke-linecap="round"/>
<rect x="11.6309" y="13.8479" width="0.5" height="0.5" rx="0.25" fill="#F9F9F9" stroke="#F9F9F9" stroke-width="0.5"/>
</svg>
