<svg width="160" height="160" viewBox="0 0 160 160" fill="none" xmlns="http://www.w3.org/2000/svg">
<circle cx="80" cy="80" r="66" fill="url(#paint0_linear_2667_4299)"/>
<path d="M136.601 43.9116C143.869 29.1769 127.698 21.7959 119.031 32.0867C113.157 39.0627 117.345 43.3797 119.712 40.1512C123.186 35.4108 116.329 20.2242 114.956 20.7661" stroke="url(#paint1_linear_2667_4299)" stroke-width="2.72013" stroke-linecap="round"/>
<path d="M125.621 58.124C124.976 58.6253 123.956 58.1109 123.975 57.294C124.042 54.4506 123.364 52.4715 121.755 50.2273C121.278 49.5629 121.849 48.5691 122.664 48.6294C125.299 48.8241 127.25 48.2827 129.437 46.6351C130.127 46.1153 131.253 46.7407 131.211 47.6034C131.094 49.9675 131.76 51.8915 133.631 54.294C134.13 54.9354 133.603 55.9406 132.791 55.9051C129.789 55.7738 127.787 56.4416 125.621 58.124Z" fill="#93F1FF"/>
<path d="M130.82 22.5849C130.421 22.6728 130.083 22.2171 130.282 21.8601C131.179 20.2494 131.346 18.9695 131.035 17.2103C130.964 16.8079 131.438 16.4933 131.785 16.7105C133.251 17.6303 134.488 17.8728 136.256 17.5012C136.678 17.4123 137.037 17.937 136.811 18.3052C135.999 19.6288 135.818 20.8812 136.241 22.8384C136.327 23.2356 135.868 23.5643 135.517 23.36C133.836 22.3823 132.549 22.2046 130.82 22.5849Z" fill="#93F1FF"/>
<path d="M21.2531 113.724C15.0655 128.944 31.7265 135.14 39.6288 124.252C44.9857 116.87 40.4971 112.866 38.3694 116.257C35.2453 121.236 43.1794 135.889 44.5091 135.249" stroke="url(#paint2_linear_2667_4299)" stroke-width="2.72013" stroke-linecap="round"/>
<path d="M31.1787 98.7549C31.7863 98.2084 32.8405 98.648 32.8803 99.4642C33.0186 102.305 33.8375 104.23 35.6041 106.353C36.127 106.981 35.6298 108.013 34.8125 108.012C32.1697 108.007 30.2634 108.688 28.2006 110.489C27.5499 111.057 26.3814 110.515 26.3617 109.651C26.3079 107.285 25.5044 105.414 23.4657 103.152C22.9214 102.548 23.3746 101.508 24.1872 101.485C27.1909 101.399 29.1397 100.589 31.1787 98.7549Z" fill="#93F1FF"/>
<path d="M35.8007 134.41C36.0988 134.13 36.6223 134.349 36.634 134.757C36.6867 136.6 37.1975 137.786 38.3644 139.138C38.6314 139.448 38.3842 139.961 37.9757 139.951C36.2454 139.911 35.0577 140.335 33.7289 141.558C33.4111 141.851 32.8347 141.583 32.8405 141.151C32.8613 139.598 32.3764 138.43 31.0126 136.964C30.7357 136.666 30.962 136.149 31.3683 136.145C33.3129 136.126 34.5096 135.621 35.8007 134.41Z" fill="#93F1FF"/>
<defs>
<linearGradient id="paint0_linear_2667_4299" x1="80" y1="14" x2="80" y2="146" gradientUnits="userSpaceOnUse">
<stop stop-color="#2276FF"/>
<stop offset="1" stop-color="#88CCFF"/>
</linearGradient>
<linearGradient id="paint1_linear_2667_4299" x1="106.298" y1="22.3982" x2="135.175" y2="38.5545" gradientUnits="userSpaceOnUse">
<stop stop-color="white"/>
<stop offset="1" stop-color="#2276FF"/>
</linearGradient>
<linearGradient id="paint2_linear_2667_4299" x1="51.6178" y1="143.219" x2="23.0674" y2="118.965" gradientUnits="userSpaceOnUse">
<stop stop-color="white"/>
<stop offset="1" stop-color="#2276FF"/>
</linearGradient>
</defs>
</svg>
