<svg width="48" height="48" viewBox="0 0 48 48" fill="none" xmlns="http://www.w3.org/2000/svg">
<rect x="34.2" y="13.8" width="20.4" height="20.4" rx="10.2" transform="rotate(90 34.2 13.8)" stroke="#5A5B66" stroke-width="1.6"/>
<path d="M22.7227 22.1992H20.9609V27.999H19.7617V22.1992H18V21H22.7227V22.1992Z" fill="#2276FF"/>
<path d="M24.3086 21.0061L24.3086 27.9985" stroke="#2276FF" stroke-width="1.2"/>
<path d="M28.7686 21.0062L28.9844 21.017C30.0513 21.1252 30.8838 22.0269 30.8838 23.1224L30.873 23.3383C30.7719 24.3341 29.9802 25.1259 28.9844 25.2269L28.7686 25.2377H27.3359V27.9984H26.1367V21.0062H28.7686ZM27.4766 24.0375H28.7686C29.274 24.0373 29.6833 23.6278 29.6836 23.1224C29.6836 22.6168 29.2741 22.2066 28.7686 22.2064H27.4766V24.0375Z" fill="#2276FF"/>
</svg>
