<svg width="40" height="40" viewBox="0 0 40 40" fill="none" xmlns="http://www.w3.org/2000/svg">
<g filter="url(#filter0_i_496_2353)">
<rect width="40" height="40" rx="20" fill="#2276FF"/>
<rect width="40" height="40" rx="20" fill="url(#paint0_linear_496_2353)"/>
</g>
<g filter="url(#filter1_i_496_2353)">
<path d="M24.7988 12.9355C25.4699 11.9557 26.8081 11.7051 27.7881 12.376C28.7679 13.047 29.0185 14.3853 28.3477 15.3652L20.335 27.0645C19.8767 27.7336 19.1075 28.0606 18.3535 27.9883C17.7245 27.9475 17.1191 27.6336 16.7295 27.0771L11.665 19.8398C10.9841 18.8667 11.2212 17.5257 12.1943 16.8447C13.1675 16.1641 14.5086 16.401 15.1895 17.374L18.5088 22.1182L24.7988 12.9355Z" fill="white"/>
</g>
<defs>
<filter id="filter0_i_496_2353" x="-1.45155" y="-1.45155" width="41.4515" height="41.4515" filterUnits="userSpaceOnUse" color-interpolation-filters="sRGB">
<feFlood flood-opacity="0" result="BackgroundImageFix"/>
<feBlend mode="normal" in="SourceGraphic" in2="BackgroundImageFix" result="shape"/>
<feColorMatrix in="SourceAlpha" type="matrix" values="0 0 0 0 0 0 0 0 0 0 0 0 0 0 0 0 0 0 127 0" result="hardAlpha"/>
<feOffset dx="-1.45155" dy="-1.45155"/>
<feGaussianBlur stdDeviation="2.39505"/>
<feComposite in2="hardAlpha" operator="arithmetic" k2="-1" k3="1"/>
<feColorMatrix type="matrix" values="0 0 0 0 0.533333 0 0 0 0 0.8 0 0 0 0 1 0 0 0 1 0"/>
<feBlend mode="normal" in2="shape" result="effect1_innerShadow_496_2353"/>
</filter>
<filter id="filter1_i_496_2353" x="9.79596" y="10.5485" width="18.9277" height="17.4496" filterUnits="userSpaceOnUse" color-interpolation-filters="sRGB">
<feFlood flood-opacity="0" result="BackgroundImageFix"/>
<feBlend mode="normal" in="SourceGraphic" in2="BackgroundImageFix" result="shape"/>
<feColorMatrix in="SourceAlpha" type="matrix" values="0 0 0 0 0 0 0 0 0 0 0 0 0 0 0 0 0 0 127 0" result="hardAlpha"/>
<feOffset dx="-1.48041" dy="-1.45155"/>
<feGaussianBlur stdDeviation="0.917854"/>
<feComposite in2="hardAlpha" operator="arithmetic" k2="-1" k3="1"/>
<feColorMatrix type="matrix" values="0 0 0 0 0.72549 0 0 0 0 0.87451 0 0 0 0 1 0 0 0 1 0"/>
<feBlend mode="normal" in2="shape" result="effect1_innerShadow_496_2353"/>
</filter>
<linearGradient id="paint0_linear_496_2353" x1="12.2475" y1="3.24864" x2="37.6255" y2="47.8729" gradientUnits="userSpaceOnUse">
<stop stop-color="#88CCFF"/>
<stop offset="0.466346" stop-color="#2276FF"/>
<stop offset="1" stop-color="#0F44BE"/>
</linearGradient>
</defs>
</svg>
