<svg width="21" height="25" viewBox="0 0 21 25" fill="none" xmlns="http://www.w3.org/2000/svg">
<path d="M13.5 0C14.8807 0 16 1.11929 16 2.5C16 2.54395 15.9954 2.58746 15.9932 2.63086C15.9969 2.66943 16 2.70938 16 2.75098C16 3.55146 15.5694 4.02601 15.1064 4.41406C15.0924 4.42584 15.0778 4.43677 15.0635 4.44824C14.3035 5.07481 13.4897 5.49048 14.3613 6.74023L14.3262 6.73047L20.3701 15.2285C21.0969 16.2504 21.145 17.6076 20.4912 18.6777L17.6006 23.4082C17.0316 24.3392 16.0188 24.9071 14.9277 24.9072H6.08203C5.00037 24.9072 3.99487 24.3487 3.42285 23.4307L0.473633 18.6982C-0.198889 17.6189 -0.151345 16.2393 0.592773 15.208L6.7168 6.71875L6.63867 6.74023C7.51059 5.49011 6.69567 5.0751 5.93555 4.44824C5.92147 4.43692 5.90738 4.42568 5.89355 4.41406C5.43063 4.02602 5 3.55143 5 2.75098C5.00001 2.70941 5.00213 2.6694 5.00586 2.63086C5.00362 2.58748 5 2.54394 5 2.5C5 1.1193 6.1193 1.95851e-05 7.5 0C8.88071 0 10 1.11929 10 2.5C10 2.50815 9.99813 2.51628 9.99805 2.52441C9.9991 2.52481 9.9997 2.52528 10 2.52539V2.91113C10.3263 2.8208 10.6713 2.81297 11 2.8916V2.52539L11.001 2.52441C11.0009 2.51628 11 2.50815 11 2.5C11 1.1193 12.1193 1.95854e-05 13.5 0Z" fill="#2276FF"/>
<path d="M10.4297 2.80396C10.763 2.80422 11.0331 3.07416 11.0332 3.40747V13.1192C11.0332 13.5755 11.4008 13.9355 11.8546 13.9837C12.5521 14.0578 13.0136 14.2525 13.0137 14.7629C13.0137 15.5641 11.8766 16.8401 10.4746 16.8401C9.07271 16.8399 7.93652 15.564 7.93652 14.7629C7.93655 14.274 8.35989 14.0754 9.00862 13.9947C9.45977 13.9386 9.8252 13.581 9.8252 13.1263V3.40747C9.82533 3.074 10.0962 2.80396 10.4297 2.80396Z" fill="white"/>
</svg>
