<svg width="100" height="114" viewBox="0 0 100 114" fill="none" xmlns="http://www.w3.org/2000/svg">
<path d="M73.227 83.0337H19.6801C17.9005 83.0337 16.2126 83.8237 15.0727 85.1904L1.90298 100.978C0.816509 102.281 1.74267 104.26 3.4388 104.26H54.0407C55.9102 104.26 57.6729 103.388 58.8081 101.903L73.227 83.0337Z" fill="white"/>
<g filter="url(#filter0_i_669_2604)">
<path d="M39.4218 49.7519C41.5149 50.2723 41.5251 54.7388 41.1109 56.0608C41.1109 56.0608 42.0341 61.3051 39.3846 63.2197C36.1933 65.5258 29.6985 64.2098 27.5724 60.8959C25.602 57.8249 26.6171 53.7085 29.7301 51.8053C32.2055 50.292 36.8377 52.3152 36.9338 51.7041C37.0298 51.093 37.3288 49.2315 39.4218 49.7519Z" fill="url(#paint0_linear_669_2604)"/>
</g>
<g filter="url(#filter1_i_669_2604)">
<path d="M66.3252 1.24756C69.115 1.24781 71.3769 3.44517 71.377 6.15576C71.377 6.49912 71.3396 6.83425 71.2705 7.15771C71.1354 8.00399 70.7593 8.65226 70.2881 9.19678C70.0565 9.48137 69.7939 9.74076 69.5039 9.96924C68.5555 10.7945 67.5483 11.4375 67.3223 12.4253L88.9951 42.8999C90.9303 45.621 91.0555 49.2343 89.3145 52.0835L80.6904 66.1978C79.1753 68.6773 76.4781 70.1899 73.5723 70.1899H47.6748C44.7949 70.1899 42.1187 68.7036 40.5957 66.2593L31.7969 52.1372C30.0064 49.2633 30.1302 45.5921 32.1113 42.8462L53.752 12.8501C53.7556 11.6054 52.5943 10.9036 51.5137 9.96143C51.2236 9.73166 50.9608 9.47108 50.7295 9.18506C50.2607 8.64019 49.8863 7.99146 49.7539 7.14502C49.6866 6.82554 49.6514 6.49456 49.6514 6.15576C49.6515 3.44507 51.9132 1.24764 54.7031 1.24756C57.4336 1.24756 59.6562 3.35225 59.75 5.98291C59.7526 5.98393 59.7542 5.9846 59.7549 5.98486V7.04346C60.2557 6.95273 60.7673 6.93414 61.2725 6.98779V5.98486C61.2725 5.98486 61.2738 5.98392 61.2764 5.98291C61.3702 3.35223 63.5947 1.24756 66.3252 1.24756Z" fill="url(#paint1_radial_669_2604)"/>
</g>
<path d="M60.5371 6.38892C60.9556 6.38892 61.2949 6.7282 61.2949 7.14673V36.9381C61.2949 38.1631 62.2877 39.1326 63.51 39.2131C65.3982 39.3376 66.6816 39.7161 66.6816 40.8635C66.6815 42.5269 63.9848 45.175 60.6582 45.175C57.3316 45.175 54.6349 42.5269 54.6348 40.8635C54.6348 39.7644 55.8123 39.3707 57.571 39.23C58.7898 39.1325 59.7793 38.1677 59.7793 36.9451V7.14673C59.7793 6.72822 60.1186 6.38895 60.5371 6.38892Z" fill="white"/>
<g filter="url(#filter2_i_669_2604)">
<ellipse cx="60.4702" cy="38.0886" rx="2.564" ry="2.56398" fill="url(#paint2_linear_669_2604)"/>
</g>
<g opacity="0.8" filter="url(#filter3_f_669_2604)">
<ellipse cx="72.1094" cy="39.4195" rx="4.25395" ry="2.94611" fill="white"/>
</g>
<g opacity="0.8" filter="url(#filter4_f_669_2604)">
<ellipse cx="64.7225" cy="5.21105" rx="2.3065" ry="2.45055" fill="#EAEAEA"/>
</g>
<g opacity="0.8" filter="url(#filter5_f_669_2604)">
<ellipse cx="53.5194" cy="5.21105" rx="2.3065" ry="2.45055" fill="#EAEAEA"/>
</g>
<g opacity="0.8" filter="url(#filter6_f_669_2604)">
<ellipse cx="49.2461" cy="39.4195" rx="4.25395" ry="2.94611" fill="white"/>
</g>
<g filter="url(#filter7_i_669_2604)">
<path d="M44.205 75.6134C45.1577 73.8503 47.0004 72.7515 49.0045 72.7515H69.7258C71.7054 72.7515 73.5296 73.8239 74.4924 75.5536L78.5385 82.8225C79.8265 85.1365 78.1535 87.9825 75.5052 87.9825H43.3433C40.7142 87.9825 39.0392 85.1737 40.289 82.8607L44.205 75.6134Z" fill="url(#paint3_linear_669_2604)"/>
</g>
<ellipse cx="65.9896" cy="34.8338" rx="2.27868" ry="2.27867" fill="#1D3156"/>
<ellipse cx="55.0599" cy="34.8338" rx="2.27868" ry="2.27867" fill="#1D3156"/>
<rect x="95.6992" y="31.8579" width="4.67228" height="23.0712" rx="2.33614" transform="rotate(29.5854 95.6992 31.8579)" fill="url(#paint4_linear_669_2604)"/>
<path d="M89.7934 37.7595C90.5046 36.5101 92.0935 36.0729 93.3437 36.7827L96.7141 38.6962C97.9658 39.4069 98.404 40.9979 97.6927 42.2492L83.8396 66.6199L75.9271 62.1193L89.7934 37.7595Z" fill="url(#paint5_linear_669_2604)"/>
<rect x="89.5176" y="38.2888" width="9.14715" height="2.15501" transform="rotate(29.5854 89.5176 38.2888)" fill="#ACAFBA"/>
<rect x="95.4102" y="38.7507" width="2.65978" height="21.6659" rx="1.32989" transform="rotate(29.5854 95.4102 38.7507)" fill="url(#paint6_linear_669_2604)"/>
<path d="M75.9297 62.126L83.8357 66.6145L81.9743 68.0328L75.7153 64.4936L75.9297 62.126Z" fill="#ACAFBA"/>
<path d="M73.7971 77.3279C72.952 77.7159 71.9757 77.1584 71.8804 76.2334L71.0882 68.5511C71.0002 67.6975 71.4297 66.8737 72.1799 66.4572L75.6938 64.5062L81.9224 68.0349L82.0905 72.0559C82.1268 72.9254 81.6339 73.7305 80.8431 74.0935L73.7971 77.3279Z" fill="url(#paint7_linear_669_2604)"/>
<path d="M72.4594 77.3974C72.288 77.3003 72.2271 77.0826 72.3241 76.9111L75.3543 71.5623C75.4515 71.3908 75.6699 71.3304 75.8415 71.4275C76.0126 71.5248 76.0725 71.7429 75.9754 71.9142L72.9452 77.263C72.8481 77.4342 72.6308 77.4942 72.4594 77.3974Z" fill="white"/>
<ellipse cx="0.920941" cy="0.920956" rx="0.920941" ry="0.920956" transform="matrix(0.999916 0.0129168 -0.012914 0.999917 74.5586 71.1978)" fill="white"/>
<g filter="url(#filter8_i_669_2604)">
<path d="M93.9283 50.6665C95.6842 51.3828 95.1312 55.2709 94.6044 56.3693C94.6044 56.3693 93.3404 59.7728 90.7938 61.1056C87.7266 62.7109 83.6479 62.0246 82.2146 58.8733C80.8864 55.9529 82.2876 52.4984 85.2361 51.2339C87.5806 50.2285 91.357 52.572 91.5175 52.0523C91.678 51.5326 92.1724 49.9503 93.9283 50.6665Z" fill="url(#paint8_linear_669_2604)"/>
</g>
<g opacity="0.8" filter="url(#filter9_f_669_2604)">
<ellipse cx="1.65249" cy="2.731" rx="1.65249" ry="2.731" transform="matrix(0.903519 0.428549 -0.428535 0.903525 85.1152 51.4642)" fill="white" fill-opacity="0.9"/>
</g>
<path d="M27.3709 97.8493C13.8788 97.9611 16.5102 90.3228 26.4455 89.9469C36.3807 89.571 36.3638 91.1747 47.9169 91.5266C57.1593 91.8081 66.8412 85.0518 68.5789 81.2477" stroke="url(#paint9_linear_669_2604)" stroke-width="2.76047" stroke-linecap="round"/>
<defs>
<filter id="filter0_i_669_2604" x="22.8819" y="48.741" width="18.4423" height="15.6389" filterUnits="userSpaceOnUse" color-interpolation-filters="sRGB">
<feFlood flood-opacity="0" result="BackgroundImageFix"/>
<feBlend mode="normal" in="SourceGraphic" in2="BackgroundImageFix" result="shape"/>
<feColorMatrix in="SourceAlpha" type="matrix" values="0 0 0 0 0 0 0 0 0 0 0 0 0 0 0 0 0 0 127 0" result="hardAlpha"/>
<feOffset dx="-3.68063" dy="-0.920157"/>
<feGaussianBlur stdDeviation="1.97834"/>
<feComposite in2="hardAlpha" operator="arithmetic" k2="-1" k3="1"/>
<feColorMatrix type="matrix" values="0 0 0 0 0.239978 0 0 0 0 0.443772 0 0 0 0 0.807692 0 0 0 0.7 0"/>
<feBlend mode="normal" in2="shape" result="effect1_innerShadow_669_2604"/>
</filter>
<filter id="filter1_i_669_2604" x="26.8545" y="0.327401" width="63.6845" height="69.8625" filterUnits="userSpaceOnUse" color-interpolation-filters="sRGB">
<feFlood flood-opacity="0" result="BackgroundImageFix"/>
<feBlend mode="normal" in="SourceGraphic" in2="BackgroundImageFix" result="shape"/>
<feColorMatrix in="SourceAlpha" type="matrix" values="0 0 0 0 0 0 0 0 0 0 0 0 0 0 0 0 0 0 127 0" result="hardAlpha"/>
<feOffset dx="-3.68063" dy="-0.920157"/>
<feGaussianBlur stdDeviation="3.4966"/>
<feComposite in2="hardAlpha" operator="arithmetic" k2="-1" k3="1"/>
<feColorMatrix type="matrix" values="0 0 0 0 0.588129 0 0 0 0 0.639333 0 0 0 0 0.730769 0 0 0 1 0"/>
<feBlend mode="normal" in2="shape" result="effect1_innerShadow_669_2604"/>
</filter>
<filter id="filter2_i_669_2604" x="56.9861" y="34.6045" width="6.04906" height="6.04809" filterUnits="userSpaceOnUse" color-interpolation-filters="sRGB">
<feFlood flood-opacity="0" result="BackgroundImageFix"/>
<feBlend mode="normal" in="SourceGraphic" in2="BackgroundImageFix" result="shape"/>
<feColorMatrix in="SourceAlpha" type="matrix" values="0 0 0 0 0 0 0 0 0 0 0 0 0 0 0 0 0 0 127 0" result="hardAlpha"/>
<feOffset dx="-0.920157" dy="-0.920157"/>
<feGaussianBlur stdDeviation="0.460079"/>
<feComposite in2="hardAlpha" operator="arithmetic" k2="-1" k3="1"/>
<feColorMatrix type="matrix" values="0 0 0 0 0.329412 0 0 0 0 0.517647 0 0 0 0 0.866667 0 0 0 1 0"/>
<feBlend mode="normal" in2="shape" result="effect1_innerShadow_669_2604"/>
</filter>
<filter id="filter3_f_669_2604" x="65.095" y="33.7129" width="14.0288" height="11.4132" filterUnits="userSpaceOnUse" color-interpolation-filters="sRGB">
<feFlood flood-opacity="0" result="BackgroundImageFix"/>
<feBlend mode="normal" in="SourceGraphic" in2="BackgroundImageFix" result="shape"/>
<feGaussianBlur stdDeviation="1.38024" result="effect1_foregroundBlur_669_2604"/>
</filter>
<filter id="filter4_f_669_2604" x="59.6555" y="2.6226e-05" width="10.1342" height="10.4221" filterUnits="userSpaceOnUse" color-interpolation-filters="sRGB">
<feFlood flood-opacity="0" result="BackgroundImageFix"/>
<feBlend mode="normal" in="SourceGraphic" in2="BackgroundImageFix" result="shape"/>
<feGaussianBlur stdDeviation="1.38024" result="effect1_foregroundBlur_669_2604"/>
</filter>
<filter id="filter5_f_669_2604" x="48.4524" y="2.6226e-05" width="10.1342" height="10.4221" filterUnits="userSpaceOnUse" color-interpolation-filters="sRGB">
<feFlood flood-opacity="0" result="BackgroundImageFix"/>
<feBlend mode="normal" in="SourceGraphic" in2="BackgroundImageFix" result="shape"/>
<feGaussianBlur stdDeviation="1.38024" result="effect1_foregroundBlur_669_2604"/>
</filter>
<filter id="filter6_f_669_2604" x="42.2317" y="33.7129" width="14.0288" height="11.4132" filterUnits="userSpaceOnUse" color-interpolation-filters="sRGB">
<feFlood flood-opacity="0" result="BackgroundImageFix"/>
<feBlend mode="normal" in="SourceGraphic" in2="BackgroundImageFix" result="shape"/>
<feGaussianBlur stdDeviation="1.38024" result="effect1_foregroundBlur_669_2604"/>
</filter>
<filter id="filter7_i_669_2604" x="36.1866" y="71.8313" width="42.7959" height="16.1512" filterUnits="userSpaceOnUse" color-interpolation-filters="sRGB">
<feFlood flood-opacity="0" result="BackgroundImageFix"/>
<feBlend mode="normal" in="SourceGraphic" in2="BackgroundImageFix" result="shape"/>
<feColorMatrix in="SourceAlpha" type="matrix" values="0 0 0 0 0 0 0 0 0 0 0 0 0 0 0 0 0 0 127 0" result="hardAlpha"/>
<feOffset dx="-3.68063" dy="-0.920157"/>
<feGaussianBlur stdDeviation="3.4966"/>
<feComposite in2="hardAlpha" operator="arithmetic" k2="-1" k3="1"/>
<feColorMatrix type="matrix" values="0 0 0 0 0.239978 0 0 0 0 0.443772 0 0 0 0 0.807692 0 0 0 0.7 0"/>
<feBlend mode="normal" in2="shape" result="effect1_innerShadow_669_2604"/>
</filter>
<filter id="filter8_i_669_2604" x="78.0303" y="49.5635" width="17.0927" height="12.3782" filterUnits="userSpaceOnUse" color-interpolation-filters="sRGB">
<feFlood flood-opacity="0" result="BackgroundImageFix"/>
<feBlend mode="normal" in="SourceGraphic" in2="BackgroundImageFix" result="shape"/>
<feColorMatrix in="SourceAlpha" type="matrix" values="0 0 0 0 0 0 0 0 0 0 0 0 0 0 0 0 0 0 127 0" result="hardAlpha"/>
<feOffset dx="-3.68063" dy="-0.920157"/>
<feGaussianBlur stdDeviation="1.97834"/>
<feComposite in2="hardAlpha" operator="arithmetic" k2="-1" k3="1"/>
<feColorMatrix type="matrix" values="0 0 0 0 0.239978 0 0 0 0 0.443772 0 0 0 0 0.807692 0 0 0 0.6 0"/>
<feBlend mode="normal" in2="shape" result="effect1_innerShadow_669_2604"/>
</filter>
<filter id="filter9_f_669_2604" x="80.7805" y="49.3117" width="9.31587" height="10.6566" filterUnits="userSpaceOnUse" color-interpolation-filters="sRGB">
<feFlood flood-opacity="0" result="BackgroundImageFix"/>
<feBlend mode="normal" in="SourceGraphic" in2="BackgroundImageFix" result="shape"/>
<feGaussianBlur stdDeviation="1.38024" result="effect1_foregroundBlur_669_2604"/>
</filter>
<linearGradient id="paint0_linear_669_2604" x1="32.7048" y1="48.4672" x2="53.2124" y2="65.2627" gradientUnits="userSpaceOnUse">
<stop stop-color="#A1C2FF"/>
<stop offset="0.307692" stop-color="#87B1FF"/>
<stop offset="1" stop-color="#4F76C0"/>
</linearGradient>
<radialGradient id="paint1_radial_669_2604" cx="0" cy="0" r="1" gradientTransform="matrix(-2.19116 96.1363 -83.6715 -1.90937 65.0632 98.6267)" gradientUnits="userSpaceOnUse">
<stop offset="0.140719" stop-color="#639FFF"/>
<stop offset="0.59456" stop-color="#A9B7C6"/>
<stop offset="1" stop-color="#C3D2E1"/>
</radialGradient>
<linearGradient id="paint2_linear_669_2604" x1="62.4861" y1="41.518" x2="58.3588" y2="35.8702" gradientUnits="userSpaceOnUse">
<stop stop-color="#146EFF"/>
<stop offset="0.658807" stop-color="#81B1FF"/>
<stop offset="1" stop-color="white"/>
</linearGradient>
<linearGradient id="paint3_linear_669_2604" x1="50.6948" y1="72.7515" x2="89.9274" y2="98.1382" gradientUnits="userSpaceOnUse">
<stop stop-color="#A1C2FF"/>
<stop offset="0.307692" stop-color="#146EFF"/>
<stop offset="1" stop-color="#2D6BDE"/>
</linearGradient>
<linearGradient id="paint4_linear_669_2604" x1="98.0354" y1="31.8579" x2="98.5046" y2="36.5615" gradientUnits="userSpaceOnUse">
<stop offset="0.0944916" stop-color="#26282C"/>
<stop offset="1" stop-color="#393B42"/>
</linearGradient>
<linearGradient id="paint5_linear_669_2604" x1="95.0158" y1="37.7321" x2="79.8885" y2="64.3768" gradientUnits="userSpaceOnUse">
<stop stop-color="#646773"/>
<stop offset="1" stop-color="#3F4041"/>
</linearGradient>
<linearGradient id="paint6_linear_669_2604" x1="96.74" y1="38.7507" x2="96.74" y2="60.4166" gradientUnits="userSpaceOnUse">
<stop stop-color="#393B42"/>
<stop offset="1" stop-color="#25272A"/>
</linearGradient>
<linearGradient id="paint7_linear_669_2604" x1="72.115" y1="78.1414" x2="78.8325" y2="66.2844" gradientUnits="userSpaceOnUse">
<stop stop-color="#484953"/>
<stop offset="1" stop-color="#242629"/>
</linearGradient>
<linearGradient id="paint8_linear_669_2604" x1="88.0641" y1="48.6411" x2="109.8" y2="70.2591" gradientUnits="userSpaceOnUse">
<stop stop-color="#8BB3FF"/>
<stop offset="0.307692" stop-color="#2871EA"/>
</linearGradient>
<linearGradient id="paint9_linear_669_2604" x1="16.0273" y1="93.6772" x2="66.6817" y2="76.0211" gradientUnits="userSpaceOnUse">
<stop stop-color="#2073FA"/>
<stop offset="0.875886" stop-color="#9EC0FF"/>
</linearGradient>
</defs>
</svg>
