<svg width="100" height="113" viewBox="0 0 100 113" fill="none" xmlns="http://www.w3.org/2000/svg">
<g filter="url(#filter0_i_669_2448)">
<path d="M20.2956 48.8495C22.3752 49.4215 22.2749 53.8869 21.8281 55.1983C21.8281 55.1983 22.6213 60.4638 19.9252 62.3123C16.6778 64.5388 10.2176 63.0624 8.1741 59.697C6.28036 56.5781 7.3969 52.4881 10.5561 50.6625C13.0682 49.2109 17.6489 51.3481 17.76 50.7396C17.8712 50.131 18.2161 48.2775 20.2956 48.8495Z" fill="url(#paint0_linear_669_2448)"/>
</g>
<g filter="url(#filter1_i_669_2448)">
<path d="M51.1994 1.49294C54.0222 1.54297 56.2713 3.80696 56.2229 6.54956C56.2167 6.89504 56.1744 7.23194 56.0995 7.55632C55.9517 8.39345 55.5712 9.033 55.0989 9.56917C54.8517 9.86799 54.57 10.1378 54.2593 10.3738C53.2848 11.1918 52.2548 11.825 52.0085 12.8206L73.3902 44.0433C75.2992 46.8311 75.3613 50.489 73.5487 53.3405L64.5694 67.4668C62.9919 69.9482 60.2367 71.4297 57.2968 71.3776L31.0938 70.9131C28.18 70.8615 25.4985 69.3106 24.0014 66.8102L15.3518 52.3637C13.5916 49.4238 13.7839 45.7113 15.8377 42.9684L38.2706 13.0068C38.2967 11.7504 37.1402 11.0195 36.0659 10.0503C35.7645 9.80374 35.4931 9.52429 35.2573 9.21747C34.8042 8.66475 34.4464 8.01159 34.3286 7.16944C34.2654 6.84299 34.2358 6.50499 34.2419 6.15993C34.2908 3.41736 36.6186 1.23448 39.4415 1.28452C42.204 1.33354 44.4153 3.50302 44.4632 6.16628C44.4662 6.16755 44.468 6.16832 44.468 6.16832L44.449 7.23944C44.9572 7.15671 45.4749 7.14765 45.9849 7.21099L46.0029 6.19552C46.0029 6.19552 46.0043 6.19462 46.0069 6.19364C46.149 3.53379 48.4369 1.44415 51.1994 1.49294Z" fill="url(#paint1_radial_669_2448)"/>
</g>
<path d="M45.2533 6.59076C45.6766 6.59826 46.0136 6.94758 46.0062 7.37082L45.4768 37.2361C45.4565 38.3825 46.3884 39.2586 47.3098 39.9409C48.1635 40.573 48.4698 41.5112 48.4547 42.366C48.4292 43.8062 47.2042 45.5259 44.6021 45.4799C41.7218 45.4288 40.7419 43.6699 40.7675 42.2297C40.7826 41.3804 41.1507 40.4605 42.041 39.8593C42.9826 39.2235 43.9231 38.3782 43.9433 37.2422L44.4732 7.34365C44.4808 6.92051 44.8302 6.5834 45.2533 6.59076Z" fill="white"/>
<g filter="url(#filter2_i_669_2448)">
<ellipse cx="44.6166" cy="38.6631" rx="2.59462" ry="2.5946" transform="rotate(1.01549 44.6166 38.6631)" fill="url(#paint2_linear_669_2448)"/>
</g>
<g opacity="0.8" filter="url(#filter3_f_669_2448)">
<ellipse cx="56.3684" cy="40.2187" rx="4.30476" ry="2.98129" transform="rotate(1.01549 56.3684 40.2187)" fill="white"/>
</g>
<g opacity="0.8" filter="url(#filter4_f_669_2448)">
<ellipse cx="49.5085" cy="5.47441" rx="2.33404" ry="2.47982" transform="rotate(1.01549 49.5085 5.47441)" fill="#EAEAEA"/>
</g>
<g opacity="0.8" filter="url(#filter5_f_669_2448)">
<ellipse cx="38.1745" cy="5.27324" rx="2.33404" ry="2.47982" transform="rotate(1.01549 38.1745 5.27324)" fill="#EAEAEA"/>
</g>
<g opacity="0.8" filter="url(#filter6_f_669_2448)">
<ellipse cx="33.2356" cy="39.8086" rx="4.30476" ry="2.98129" transform="rotate(1.01549 33.2356 39.8086)" fill="white"/>
</g>
<ellipse cx="39.2002" cy="35.2731" rx="2.3059" ry="2.30588" transform="rotate(1.01549 39.2002 35.2731)" fill="#1D3156"/>
<circle cx="37.6955" cy="34.9171" r="5.56569" transform="rotate(1.01549 37.6955 34.9171)" stroke="#1D3156" stroke-width="1.01194"/>
<circle cx="51.8596" cy="35.1681" r="5.56569" transform="rotate(1.01549 51.8596 35.1681)" stroke="#1D3156" stroke-width="1.01194"/>
<path d="M43.5547 35.7856L46.1039 35.8308" stroke="#1D3156" stroke-width="1.01194"/>
<g filter="url(#filter7_i_669_2448)">
<path d="M28.8738 75.7264C29.8666 73.9581 31.7491 72.8764 33.7768 72.9093L54.7428 73.2487C56.7458 73.2811 58.5741 74.396 59.5199 76.1619L63.4947 83.583C64.76 85.9454 63.0206 88.7977 60.3411 88.7543L27.7993 88.2275C25.1391 88.1844 23.4904 85.315 24.7929 82.9951L28.8738 75.7264Z" fill="url(#paint3_linear_669_2448)"/>
</g>
<path d="M48.9626 35.2831C49.9005 34.9423 51.9624 34.5219 53.9123 36.46" stroke="#1D3156" stroke-width="1.01194" stroke-linecap="round"/>
<rect x="72.4434" y="41.2816" width="5.5896" height="13.0424" transform="rotate(23.0083 72.4434 41.2816)" fill="#444547"/>
<circle cx="78.6578" cy="33.799" r="12.1108" transform="rotate(23.0083 78.6578 33.799)" fill="#45474A"/>
<circle cx="78.6582" cy="33.7992" r="9.31599" transform="rotate(23.0083 78.6582 33.7992)" fill="url(#paint4_linear_669_2448)"/>
<path d="M70.4083 43.69C70.638 43.1492 71.3104 42.9657 71.8 43.2907C73.3838 44.3422 74.6801 44.8909 76.5903 45.3185C77.1653 45.4472 77.4985 46.0608 77.2682 46.6031C77.104 46.9899 76.6971 47.2181 76.2836 47.1435C73.9183 46.7171 72.5365 46.0846 70.705 44.771C70.364 44.5265 70.2443 44.0762 70.4083 43.69Z" fill="#2E3035"/>
<path d="M66.4563 53.0003C66.6757 52.4836 67.2723 52.2427 67.789 52.4621L72.778 54.5806C73.2946 54.8 73.5356 55.3967 73.3162 55.9133L70.8004 61.8378C69.996 63.7321 67.8082 64.6156 65.9139 63.8112C64.0196 63.0068 63.1361 60.819 63.9405 58.9247L66.4563 53.0003Z" fill="#2E3035"/>
<rect x="64.3047" y="58.0675" width="7.45279" height="0.931599" transform="rotate(23.0083 64.3047 58.0675)" fill="#2E3035"/>
<rect x="65.0332" y="56.3524" width="7.45279" height="0.931599" transform="rotate(23.0083 65.0332 56.3524)" fill="#2E3035"/>
<g filter="url(#filter8_i_669_2448)">
<path d="M77.2447 48.3421C79.0006 49.0583 78.4476 52.9465 77.9208 54.0448C77.9208 54.0448 76.6568 57.4484 74.1102 58.7811C71.043 60.3864 66.9643 59.7001 65.531 56.5488C64.2028 53.6284 65.604 50.174 68.5525 48.9095C70.897 47.904 74.6734 50.2475 74.8339 49.7278C74.9944 49.2081 75.4888 47.6258 77.2447 48.3421Z" fill="url(#paint5_linear_669_2448)"/>
</g>
<g opacity="0.8" filter="url(#filter9_f_669_2448)">
<ellipse cx="1.65249" cy="2.731" rx="1.65249" ry="2.731" transform="matrix(0.903519 0.428549 -0.428535 0.903525 68.4316 49.1399)" fill="white" fill-opacity="0.9"/>
</g>
<path d="M83.2422 29.8511C84.2613 31.04 85.7899 34.2331 83.7517 37.4941" stroke="black" stroke-width="2.72092" stroke-linecap="round" stroke-linejoin="round"/>
<path d="M83.2422 29.8511C84.2613 31.04 85.7899 34.2331 83.7517 37.4941" stroke="white" stroke-width="2.72092" stroke-linecap="round" stroke-linejoin="round"/>
<defs>
<filter id="filter0_i_669_2448" x="3.56742" y="47.8212" width="18.5244" height="15.5509" filterUnits="userSpaceOnUse" color-interpolation-filters="sRGB">
<feFlood flood-opacity="0" result="BackgroundImageFix"/>
<feBlend mode="normal" in="SourceGraphic" in2="BackgroundImageFix" result="shape"/>
<feColorMatrix in="SourceAlpha" type="matrix" values="0 0 0 0 0 0 0 0 0 0 0 0 0 0 0 0 0 0 127 0" result="hardAlpha"/>
<feOffset dx="-3.68063" dy="-0.920157"/>
<feGaussianBlur stdDeviation="1.97834"/>
<feComposite in2="hardAlpha" operator="arithmetic" k2="-1" k3="1"/>
<feColorMatrix type="matrix" values="0 0 0 0 0.239978 0 0 0 0 0.443772 0 0 0 0 0.807692 0 0 0 0.7 0"/>
<feBlend mode="normal" in2="shape" result="effect1_innerShadow_669_2448"/>
</filter>
<filter id="filter1_i_669_2448" x="10.4278" y="0.352545" width="64.4394" height="71.0264" filterUnits="userSpaceOnUse" color-interpolation-filters="sRGB">
<feFlood flood-opacity="0" result="BackgroundImageFix"/>
<feBlend mode="normal" in="SourceGraphic" in2="BackgroundImageFix" result="shape"/>
<feColorMatrix in="SourceAlpha" type="matrix" values="0 0 0 0 0 0 0 0 0 0 0 0 0 0 0 0 0 0 127 0" result="hardAlpha"/>
<feOffset dx="-3.72459" dy="-0.931147"/>
<feGaussianBlur stdDeviation="3.53836"/>
<feComposite in2="hardAlpha" operator="arithmetic" k2="-1" k3="1"/>
<feColorMatrix type="matrix" values="0 0 0 0 0.590458 0 0 0 0 0.627019 0 0 0 0 0.692308 0 0 0 1 0"/>
<feBlend mode="normal" in2="shape" result="effect1_innerShadow_669_2448"/>
</filter>
<filter id="filter2_i_669_2448" x="41.0903" y="35.1373" width="6.1206" height="6.12036" filterUnits="userSpaceOnUse" color-interpolation-filters="sRGB">
<feFlood flood-opacity="0" result="BackgroundImageFix"/>
<feBlend mode="normal" in="SourceGraphic" in2="BackgroundImageFix" result="shape"/>
<feColorMatrix in="SourceAlpha" type="matrix" values="0 0 0 0 0 0 0 0 0 0 0 0 0 0 0 0 0 0 127 0" result="hardAlpha"/>
<feOffset dx="-0.931147" dy="-0.931147"/>
<feGaussianBlur stdDeviation="0.465573"/>
<feComposite in2="hardAlpha" operator="arithmetic" k2="-1" k3="1"/>
<feColorMatrix type="matrix" values="0 0 0 0 0.329412 0 0 0 0 0.517647 0 0 0 0 0.866667 0 0 0 1 0"/>
<feBlend mode="normal" in2="shape" result="effect1_innerShadow_669_2448"/>
</filter>
<filter id="filter3_f_669_2448" x="49.271" y="34.4435" width="14.1943" height="11.5505" filterUnits="userSpaceOnUse" color-interpolation-filters="sRGB">
<feFlood flood-opacity="0" result="BackgroundImageFix"/>
<feBlend mode="normal" in="SourceGraphic" in2="BackgroundImageFix" result="shape"/>
<feGaussianBlur stdDeviation="1.39672" result="effect1_foregroundBlur_669_2448"/>
</filter>
<filter id="filter4_f_669_2448" x="44.3804" y="0.20119" width="10.2548" height="10.5465" filterUnits="userSpaceOnUse" color-interpolation-filters="sRGB">
<feFlood flood-opacity="0" result="BackgroundImageFix"/>
<feBlend mode="normal" in="SourceGraphic" in2="BackgroundImageFix" result="shape"/>
<feGaussianBlur stdDeviation="1.39672" result="effect1_foregroundBlur_669_2448"/>
</filter>
<filter id="filter5_f_669_2448" x="33.0464" y="1.7643e-05" width="10.2548" height="10.5465" filterUnits="userSpaceOnUse" color-interpolation-filters="sRGB">
<feFlood flood-opacity="0" result="BackgroundImageFix"/>
<feBlend mode="normal" in="SourceGraphic" in2="BackgroundImageFix" result="shape"/>
<feGaussianBlur stdDeviation="1.39672" result="effect1_foregroundBlur_669_2448"/>
</filter>
<filter id="filter6_f_669_2448" x="26.1382" y="34.0333" width="14.1943" height="11.5505" filterUnits="userSpaceOnUse" color-interpolation-filters="sRGB">
<feFlood flood-opacity="0" result="BackgroundImageFix"/>
<feBlend mode="normal" in="SourceGraphic" in2="BackgroundImageFix" result="shape"/>
<feGaussianBlur stdDeviation="1.39672" result="effect1_foregroundBlur_669_2448"/>
</filter>
<filter id="filter7_i_669_2448" x="20.6133" y="71.9774" width="43.3027" height="16.7773" filterUnits="userSpaceOnUse" color-interpolation-filters="sRGB">
<feFlood flood-opacity="0" result="BackgroundImageFix"/>
<feBlend mode="normal" in="SourceGraphic" in2="BackgroundImageFix" result="shape"/>
<feColorMatrix in="SourceAlpha" type="matrix" values="0 0 0 0 0 0 0 0 0 0 0 0 0 0 0 0 0 0 127 0" result="hardAlpha"/>
<feOffset dx="-3.72459" dy="-0.931147"/>
<feGaussianBlur stdDeviation="3.53836"/>
<feComposite in2="hardAlpha" operator="arithmetic" k2="-1" k3="1"/>
<feColorMatrix type="matrix" values="0 0 0 0 0.239978 0 0 0 0 0.443772 0 0 0 0 0.807692 0 0 0 0.7 0"/>
<feBlend mode="normal" in2="shape" result="effect1_innerShadow_669_2448"/>
</filter>
<filter id="filter8_i_669_2448" x="61.3467" y="47.239" width="17.0927" height="12.3782" filterUnits="userSpaceOnUse" color-interpolation-filters="sRGB">
<feFlood flood-opacity="0" result="BackgroundImageFix"/>
<feBlend mode="normal" in="SourceGraphic" in2="BackgroundImageFix" result="shape"/>
<feColorMatrix in="SourceAlpha" type="matrix" values="0 0 0 0 0 0 0 0 0 0 0 0 0 0 0 0 0 0 127 0" result="hardAlpha"/>
<feOffset dx="-3.68063" dy="-0.920157"/>
<feGaussianBlur stdDeviation="1.97834"/>
<feComposite in2="hardAlpha" operator="arithmetic" k2="-1" k3="1"/>
<feColorMatrix type="matrix" values="0 0 0 0 0.239978 0 0 0 0 0.443772 0 0 0 0 0.807692 0 0 0 0.6 0"/>
<feBlend mode="normal" in2="shape" result="effect1_innerShadow_669_2448"/>
</filter>
<filter id="filter9_f_669_2448" x="64.097" y="46.9873" width="9.31587" height="10.6566" filterUnits="userSpaceOnUse" color-interpolation-filters="sRGB">
<feFlood flood-opacity="0" result="BackgroundImageFix"/>
<feBlend mode="normal" in="SourceGraphic" in2="BackgroundImageFix" result="shape"/>
<feGaussianBlur stdDeviation="1.38024" result="effect1_foregroundBlur_669_2448"/>
</filter>
<linearGradient id="paint0_linear_669_2448" x1="15" y1="43.3511" x2="25.6231" y2="52.4539" gradientUnits="userSpaceOnUse">
<stop stop-color="#A1C2FF"/>
<stop offset="0.307692" stop-color="#87B1FF"/>
<stop offset="1" stop-color="#4F76C0"/>
</linearGradient>
<radialGradient id="paint1_radial_669_2448" cx="0" cy="0" r="1" gradientTransform="matrix(-3.94113 97.2299 -84.6232 -3.43247 48.1767 99.997)" gradientUnits="userSpaceOnUse">
<stop offset="0.140719" stop-color="#639FFF"/>
<stop offset="0.59456" stop-color="#A9B7C6"/>
<stop offset="1" stop-color="#C3D2E1"/>
</radialGradient>
<linearGradient id="paint2_linear_669_2448" x1="46.6565" y1="42.1335" x2="42.4799" y2="36.4182" gradientUnits="userSpaceOnUse">
<stop stop-color="#146EFF"/>
<stop offset="0.658807" stop-color="#81B1FF"/>
<stop offset="1" stop-color="white"/>
</linearGradient>
<linearGradient id="paint3_linear_669_2448" x1="35.4871" y1="72.937" x2="74.7672" y2="99.2661" gradientUnits="userSpaceOnUse">
<stop stop-color="#A1C2FF"/>
<stop offset="0.307692" stop-color="#146EFF"/>
<stop offset="1" stop-color="#2D6BDE"/>
</linearGradient>
<linearGradient id="paint4_linear_669_2448" x1="78.6582" y1="24.4832" x2="78.6582" y2="38.4572" gradientUnits="userSpaceOnUse">
<stop stop-color="#ACAFBA"/>
<stop offset="1" stop-color="white"/>
</linearGradient>
<linearGradient id="paint5_linear_669_2448" x1="71.3805" y1="46.3167" x2="93.1166" y2="67.9347" gradientUnits="userSpaceOnUse">
<stop stop-color="#8BB3FF"/>
<stop offset="0.307692" stop-color="#2871EA"/>
</linearGradient>
</defs>
</svg>
