<svg width="100" height="112" viewBox="0 0 100 112" fill="none" xmlns="http://www.w3.org/2000/svg">
<g filter="url(#filter0_i_669_2572)">
<path d="M55.2568 0.0366692C58.005 0.0324101 60.2367 2.19376 60.2408 4.86391C60.2413 5.19578 60.2059 5.51965 60.1408 5.83282C60.0104 6.68457 59.6321 7.33373 59.1586 7.87829C58.9432 8.14125 58.7015 8.38295 58.4351 8.59718C57.4922 9.42585 56.4781 10.063 56.2553 11.0488L77.6475 41.0303C79.5578 43.7077 79.6875 47.2666 77.9769 50.0757L69.5024 63.9912C68.0137 66.4359 65.3601 67.9303 62.4978 67.9347L36.988 67.9742C34.1515 67.9785 31.5133 66.5191 30.0094 64.114L21.3208 50.2163C19.5528 47.3883 19.6692 43.7723 21.6162 41.0644L42.8907 11.4797C42.8899 10.2606 41.7543 9.57223 40.693 8.65202C40.3979 8.42026 40.1316 8.15572 39.8978 7.86517C39.4299 7.31965 39.0574 6.66867 38.9347 5.81392C38.8757 5.5174 38.8429 5.21126 38.8424 4.89805C38.8384 2.22801 41.0633 0.0596422 43.8115 0.0553832C46.5003 0.0513536 48.6921 2.12058 48.7894 4.71076C48.7919 4.71173 48.7933 4.71271 48.7933 4.71271L48.7935 4.84064C48.7937 4.85462 48.7945 4.86861 48.7946 4.88263C48.7946 4.89624 48.7938 4.91006 48.7937 4.92364L48.7949 5.7547C49.2879 5.66502 49.7916 5.6463 50.289 5.69867L50.2875 4.71234C50.2875 4.71234 50.2893 4.7116 50.2924 4.71038C50.3798 2.11823 52.5667 0.0408875 55.2568 0.0366692Z" fill="url(#paint0_radial_669_2572)"/>
</g>
<path d="M49.5654 5.10698C49.9778 5.10634 50.313 5.44057 50.3137 5.85289L50.3587 34.9291C50.3604 36.045 51.2835 36.8802 52.193 37.5268C53.0355 38.1259 53.3513 39.0329 53.3527 39.8648C53.3549 41.2668 52.1944 42.9632 49.6612 42.9672C46.8572 42.9716 45.8705 41.2785 45.8683 39.8764C45.8672 39.0495 46.2082 38.1473 47.0634 37.5454C47.9678 36.9089 48.8673 36.0686 48.8656 34.9627L48.8205 5.85521C48.8199 5.44289 49.1531 5.10763 49.5654 5.10698Z" fill="white"/>
<g filter="url(#filter1_i_669_2572)">
<ellipse cx="49.549" cy="36.3343" rx="2.52553" ry="2.52551" transform="rotate(-0.0887943 49.549 36.3343)" fill="url(#paint1_linear_669_2572)"/>
</g>
<g opacity="0.8" filter="url(#filter2_f_669_2572)">
<ellipse cx="61.013" cy="37.6273" rx="4.19012" ry="2.9019" transform="rotate(-0.0887943 61.013 37.6273)" fill="white"/>
</g>
<g opacity="0.8" filter="url(#filter3_f_669_2572)">
<ellipse cx="38.4954" cy="37.662" rx="4.19012" ry="2.9019" transform="rotate(-0.0887943 38.4954 37.662)" fill="white"/>
</g>
<path d="M53.7137 31.9619C54.6201 31.6128 56.6188 31.165 58.5528 33.0145" stroke="#1D3156" stroke-width="1.3" stroke-linecap="round"/>
<path d="M45.3565 32.1253C44.4205 31.866 42.3876 31.6148 40.6428 33.6437" stroke="#1D3156" stroke-width="1.3" stroke-linecap="round"/>
<g filter="url(#filter4_i_669_2572)">
<path d="M36.0585 75.8444C36.7134 73.9503 38.354 72.5678 40.3317 72.2435L60.7799 68.8907C62.7334 68.5704 64.7072 69.3335 65.9372 70.8846L71.1061 77.4031C72.7516 79.4782 71.5611 82.5574 68.9477 82.9859L37.2095 88.1899C34.6151 88.6153 32.5077 86.1145 33.3668 83.6297L36.0585 75.8444Z" fill="url(#paint2_linear_669_2572)"/>
</g>
<g filter="url(#filter5_i_669_2572)">
<path d="M24.7441 32.175C25.5769 34.1645 22.0008 36.8406 20.6931 37.298C20.6931 37.298 17.0386 41.1709 13.9204 40.1895C10.1647 39.0075 7.34087 33.0125 8.72872 29.3279C10.0149 25.9134 13.9225 24.2687 17.3084 25.6286C20.0006 26.71 21.1448 31.6336 21.6923 31.3456C22.2398 31.0576 23.9113 30.1855 24.7441 32.175Z" fill="url(#paint3_linear_669_2572)"/>
</g>
<g filter="url(#filter6_i_669_2572)">
<path d="M74.8829 32.175C74.0501 34.1645 77.6261 36.8406 78.9339 37.298C78.9339 37.298 82.5884 41.1709 85.7066 40.1895C89.4622 39.0075 92.2861 33.0125 90.8982 29.3279C89.6121 25.9134 85.7044 24.2687 82.3186 25.6286C79.6263 26.71 78.4822 31.6336 77.9347 31.3456C77.3872 31.0576 75.7157 30.1855 74.8829 32.175Z" fill="url(#paint4_linear_669_2572)"/>
</g>
<g opacity="0.8" filter="url(#filter7_f_669_2572)">
<ellipse cx="1.65249" cy="2.731" rx="1.65249" ry="2.731" transform="matrix(0.903519 0.428549 -0.428535 0.903525 82.3398 26)" fill="white" fill-opacity="0.9"/>
</g>
<g opacity="0.8" filter="url(#filter8_f_669_2572)">
<ellipse cx="1.65249" cy="2.731" rx="1.65249" ry="2.731" transform="matrix(0.903519 0.428549 -0.428535 0.903525 11.3398 26)" fill="white" fill-opacity="0.9"/>
</g>
<defs>
<filter id="filter0_i_669_2572" x="16.4448" y="-0.869745" width="62.7309" height="68.8441" filterUnits="userSpaceOnUse" color-interpolation-filters="sRGB">
<feFlood flood-opacity="0" result="BackgroundImageFix"/>
<feBlend mode="normal" in="SourceGraphic" in2="BackgroundImageFix" result="shape"/>
<feColorMatrix in="SourceAlpha" type="matrix" values="0 0 0 0 0 0 0 0 0 0 0 0 0 0 0 0 0 0 127 0" result="hardAlpha"/>
<feOffset dx="-3.62547" dy="-0.906366"/>
<feGaussianBlur stdDeviation="3.44419"/>
<feComposite in2="hardAlpha" operator="arithmetic" k2="-1" k3="1"/>
<feColorMatrix type="matrix" values="0 0 0 0 0.588129 0 0 0 0 0.639333 0 0 0 0 0.730769 0 0 0 1 0"/>
<feBlend mode="normal" in2="shape" result="effect1_innerShadow_669_2572"/>
</filter>
<filter id="filter1_i_669_2572" x="46.1171" y="32.9025" width="5.95715" height="5.95739" filterUnits="userSpaceOnUse" color-interpolation-filters="sRGB">
<feFlood flood-opacity="0" result="BackgroundImageFix"/>
<feBlend mode="normal" in="SourceGraphic" in2="BackgroundImageFix" result="shape"/>
<feColorMatrix in="SourceAlpha" type="matrix" values="0 0 0 0 0 0 0 0 0 0 0 0 0 0 0 0 0 0 127 0" result="hardAlpha"/>
<feOffset dx="-0.906366" dy="-0.906366"/>
<feGaussianBlur stdDeviation="0.453183"/>
<feComposite in2="hardAlpha" operator="arithmetic" k2="-1" k3="1"/>
<feColorMatrix type="matrix" values="0 0 0 0 0.329412 0 0 0 0 0.517647 0 0 0 0 0.866667 0 0 0 1 0"/>
<feBlend mode="normal" in2="shape" result="effect1_innerShadow_669_2572"/>
</filter>
<filter id="filter2_f_669_2572" x="54.1032" y="32.0062" width="13.8191" height="11.2422" filterUnits="userSpaceOnUse" color-interpolation-filters="sRGB">
<feFlood flood-opacity="0" result="BackgroundImageFix"/>
<feBlend mode="normal" in="SourceGraphic" in2="BackgroundImageFix" result="shape"/>
<feGaussianBlur stdDeviation="1.35955" result="effect1_foregroundBlur_669_2572"/>
</filter>
<filter id="filter3_f_669_2572" x="31.5856" y="32.0409" width="13.8191" height="11.2422" filterUnits="userSpaceOnUse" color-interpolation-filters="sRGB">
<feFlood flood-opacity="0" result="BackgroundImageFix"/>
<feBlend mode="normal" in="SourceGraphic" in2="BackgroundImageFix" result="shape"/>
<feGaussianBlur stdDeviation="1.35955" result="effect1_foregroundBlur_669_2572"/>
</filter>
<filter id="filter4_i_669_2572" x="29.4912" y="67.8984" width="42.3701" height="20.3391" filterUnits="userSpaceOnUse" color-interpolation-filters="sRGB">
<feFlood flood-opacity="0" result="BackgroundImageFix"/>
<feBlend mode="normal" in="SourceGraphic" in2="BackgroundImageFix" result="shape"/>
<feColorMatrix in="SourceAlpha" type="matrix" values="0 0 0 0 0 0 0 0 0 0 0 0 0 0 0 0 0 0 127 0" result="hardAlpha"/>
<feOffset dx="-3.68063" dy="-0.920157"/>
<feGaussianBlur stdDeviation="3.4966"/>
<feComposite in2="hardAlpha" operator="arithmetic" k2="-1" k3="1"/>
<feColorMatrix type="matrix" values="0 0 0 0 0.0915644 0 0 0 0 0.319641 0 0 0 0 0.726923 0 0 0 0.7 0"/>
<feBlend mode="normal" in2="shape" result="effect1_innerShadow_669_2572"/>
</filter>
<filter id="filter5_i_669_2572" x="4.68851" y="24.2315" width="20.1806" height="16.1174" filterUnits="userSpaceOnUse" color-interpolation-filters="sRGB">
<feFlood flood-opacity="0" result="BackgroundImageFix"/>
<feBlend mode="normal" in="SourceGraphic" in2="BackgroundImageFix" result="shape"/>
<feColorMatrix in="SourceAlpha" type="matrix" values="0 0 0 0 0 0 0 0 0 0 0 0 0 0 0 0 0 0 127 0" result="hardAlpha"/>
<feOffset dx="-3.68063" dy="-0.920157"/>
<feGaussianBlur stdDeviation="3.4966"/>
<feComposite in2="hardAlpha" operator="arithmetic" k2="-1" k3="1"/>
<feColorMatrix type="matrix" values="0 0 0 0 0.0915644 0 0 0 0 0.319641 0 0 0 0 0.726923 0 0 0 0.7 0"/>
<feBlend mode="normal" in2="shape" result="effect1_innerShadow_669_2572"/>
</filter>
<filter id="filter6_i_669_2572" x="71.0772" y="24.2315" width="20.1806" height="16.1174" filterUnits="userSpaceOnUse" color-interpolation-filters="sRGB">
<feFlood flood-opacity="0" result="BackgroundImageFix"/>
<feBlend mode="normal" in="SourceGraphic" in2="BackgroundImageFix" result="shape"/>
<feColorMatrix in="SourceAlpha" type="matrix" values="0 0 0 0 0 0 0 0 0 0 0 0 0 0 0 0 0 0 127 0" result="hardAlpha"/>
<feOffset dx="-3.68063" dy="-0.920157"/>
<feGaussianBlur stdDeviation="3.4966"/>
<feComposite in2="hardAlpha" operator="arithmetic" k2="-1" k3="1"/>
<feColorMatrix type="matrix" values="0 0 0 0 0.0915644 0 0 0 0 0.319641 0 0 0 0 0.726923 0 0 0 0.7 0"/>
<feBlend mode="normal" in2="shape" result="effect1_innerShadow_669_2572"/>
</filter>
<filter id="filter7_f_669_2572" x="78.0052" y="23.8474" width="9.31587" height="10.6564" filterUnits="userSpaceOnUse" color-interpolation-filters="sRGB">
<feFlood flood-opacity="0" result="BackgroundImageFix"/>
<feBlend mode="normal" in="SourceGraphic" in2="BackgroundImageFix" result="shape"/>
<feGaussianBlur stdDeviation="1.38024" result="effect1_foregroundBlur_669_2572"/>
</filter>
<filter id="filter8_f_669_2572" x="7.00515" y="23.8474" width="9.31587" height="10.6564" filterUnits="userSpaceOnUse" color-interpolation-filters="sRGB">
<feFlood flood-opacity="0" result="BackgroundImageFix"/>
<feBlend mode="normal" in="SourceGraphic" in2="BackgroundImageFix" result="shape"/>
<feGaussianBlur stdDeviation="1.38024" result="effect1_foregroundBlur_669_2572"/>
</filter>
<radialGradient id="paint0_radial_669_2572" cx="0" cy="0" r="1" gradientTransform="matrix(-2.01158 94.6988 -82.4207 -1.75302 54.1593 95.9583)" gradientUnits="userSpaceOnUse">
<stop offset="0.140719" stop-color="#639FFF"/>
<stop offset="0.59456" stop-color="#A9B7C6"/>
<stop offset="1" stop-color="#C3D2E1"/>
</radialGradient>
<linearGradient id="paint1_linear_669_2572" x1="51.5346" y1="39.7122" x2="47.4692" y2="34.1492" gradientUnits="userSpaceOnUse">
<stop stop-color="#146EFF"/>
<stop offset="0.658807" stop-color="#81B1FF"/>
<stop offset="1" stop-color="white"/>
</linearGradient>
<linearGradient id="paint2_linear_669_2572" x1="41.9997" y1="71.97" x2="84.8231" y2="90.6741" gradientUnits="userSpaceOnUse">
<stop stop-color="#A1C2FF"/>
<stop offset="0.307692" stop-color="#146EFF"/>
<stop offset="1" stop-color="#2D6BDE"/>
</linearGradient>
<linearGradient id="paint3_linear_669_2572" x1="21.7624" y1="26.0205" x2="30.9238" y2="38.8086" gradientUnits="userSpaceOnUse">
<stop stop-color="#A1C2FF"/>
<stop offset="0.307692" stop-color="#87B1FF"/>
<stop offset="1" stop-color="#4F76C0"/>
</linearGradient>
<linearGradient id="paint4_linear_669_2572" x1="77.8646" y1="26.0205" x2="72.3547" y2="38.57" gradientUnits="userSpaceOnUse">
<stop stop-color="#A1C2FF"/>
<stop offset="0.307692" stop-color="#87B1FF"/>
<stop offset="1" stop-color="#4F76C0"/>
</linearGradient>
</defs>
</svg>
