<svg width="100" height="112" viewBox="0 0 100 112" fill="none" xmlns="http://www.w3.org/2000/svg">
<g filter="url(#filter0_i_669_2401)">
<path d="M18.7441 30.1711C19.5769 32.1606 16.0008 34.8367 14.6931 35.2941C14.6931 35.2941 11.0386 39.167 7.92039 38.1856C4.16471 37.0036 1.34087 31.0086 2.72872 27.324C4.01485 23.9094 7.92253 22.2648 11.3084 23.6247C14.0006 24.7061 15.1448 29.6297 15.6923 29.3417C16.2398 29.0537 17.9113 28.1816 18.7441 30.1711Z" fill="url(#paint0_linear_669_2401)"/>
</g>
<g filter="url(#filter1_i_669_2401)">
<path d="M48.329 0.772536C51.0954 0.779898 53.3319 2.96523 53.3248 5.65304C53.3239 5.97831 53.2891 6.29573 53.2256 6.60297C53.095 7.46499 52.7131 8.12003 52.2347 8.6687C52.0107 8.94196 51.7574 9.19109 51.4788 9.41181C50.5317 10.2349 49.5203 10.8714 49.2907 11.8552L70.7024 42.133C72.6138 44.8361 72.7292 48.4189 70.9955 51.2393L62.4065 65.2116C60.8977 67.6661 58.2196 69.1585 55.3384 69.1508L29.6608 69.0825C26.8052 69.0749 24.1553 67.594 22.6516 65.1663L13.9643 51.1412C12.1964 48.2869 12.3297 44.6467 14.3013 41.9292L35.8335 12.2491C35.8442 11.0121 34.6944 10.3125 33.6244 9.37503C33.3413 9.14959 33.0852 8.89383 32.8588 8.6142C32.3786 8.05672 31.9962 7.39099 31.8752 6.51392C31.8176 6.21673 31.787 5.91024 31.7878 5.59669C31.7949 2.90892 34.0431 0.73555 36.8095 0.742853C39.5168 0.750058 41.7149 2.84282 41.8009 5.45147C41.8024 5.45206 41.8034 5.45228 41.8038 5.45245L41.8036 5.5296C41.8041 5.56063 41.8054 5.59219 41.8053 5.62335C41.8052 5.65109 41.8037 5.67873 41.8031 5.70636L41.801 6.50421C42.2979 6.4152 42.8051 6.39733 43.306 6.45157L43.3081 5.66153C43.3081 5.64982 43.3072 5.63811 43.3073 5.62637C43.3073 5.61436 43.3082 5.60224 43.3083 5.59024L43.3087 5.45646C43.3087 5.45646 43.3096 5.45529 43.3116 5.45451C43.4117 2.84655 45.6218 0.765397 48.329 0.772536Z" fill="url(#paint1_radial_669_2401)"/>
</g>
<path d="M42.581 5.85123C42.9956 5.85254 43.3311 6.18963 43.33 6.6042L43.2518 35.9769C43.249 37.0624 44.126 37.9154 44.9372 38.6366C45.8965 39.4895 46.2467 40.866 46.2433 42.1209C46.2379 44.1199 45.0609 46.5328 42.5109 46.526C39.6886 46.5183 38.7049 44.0998 38.7101 42.1008C38.7135 40.8521 39.1035 39.4849 40.0838 38.6364C40.8935 37.9356 41.7469 37.0896 41.7498 36.0188L41.8281 6.60021C41.8292 6.18551 42.1663 5.85013 42.581 5.85123Z" fill="white"/>
<g filter="url(#filter2_i_669_2401)">
<ellipse cx="42.4339" cy="37.2849" rx="2.54224" ry="2.54222" transform="rotate(0.152495 42.4339 37.2849)" fill="url(#paint2_linear_669_2401)"/>
</g>
<g opacity="0.8" filter="url(#filter3_f_669_2401)">
<ellipse cx="53.9679" cy="38.6329" rx="4.21784" ry="2.9211" transform="rotate(0.152495 53.9679 38.6329)" fill="white"/>
</g>
<g opacity="0.8" filter="url(#filter4_f_669_2401)">
<ellipse cx="31.3019" cy="38.5732" rx="4.21784" ry="2.9211" transform="rotate(0.152495 31.3019 38.5732)" fill="white"/>
</g>
<ellipse cx="37.2494" cy="33.9266" rx="2.25934" ry="2.25932" transform="rotate(0.152495 37.2494 33.9266)" fill="#1D3156"/>
<ellipse cx="47.8256" cy="34.0852" rx="2.25934" ry="2.25932" transform="rotate(0.152495 47.8256 34.0852)" fill="#1D3156"/>
<path d="M45.8262 23.3262C46.4602 22.4658 48.419 21.2662 51.182 23.3512" stroke="#1D3156" stroke-width="1.2" stroke-linecap="round"/>
<path d="M39.0801 23.225C38.4722 22.3459 36.5504 21.0879 33.7259 23.0889" stroke="#1D3156" stroke-width="1.2" stroke-linecap="round"/>
<g opacity="0.8" filter="url(#filter5_f_669_2401)">
<ellipse cx="31.793" cy="39.1677" rx="4.25395" ry="2.94611" fill="white"/>
</g>
<g filter="url(#filter6_i_669_2401)">
<path d="M26.7519 75.3618C27.7046 73.5987 29.5473 72.4999 31.5514 72.4999H52.2727C54.2523 72.4999 56.0765 73.5723 57.0393 75.302L61.0854 82.571C62.3734 84.8849 60.7004 87.731 58.0521 87.731H25.8901C23.2611 87.731 21.5861 84.9221 22.8359 82.6091L26.7519 75.3618Z" fill="url(#paint3_linear_669_2401)"/>
</g>
<path d="M81 31.996L95.9243 30.0322C97.9397 29.7671 99.1135 27.6165 98.2463 25.778L89.8873 8.05708C88.8659 5.89174 85.8443 5.73641 84.6063 7.78559L75.7498 22.4446C74.5418 24.444 75.9815 26.996 78.3175 26.996H79" stroke="url(#paint4_linear_669_2401)" stroke-width="2.76" stroke-linecap="round"/>
<path d="M87 14.996L86.5 20.496" stroke="url(#paint5_linear_669_2401)" stroke-width="2.76" stroke-linecap="round"/>
<circle cx="86.5" cy="24.496" r="1.5" fill="#2073FA"/>
<rect x="57.4727" y="75.8229" width="4.67228" height="23.0712" rx="2.33614" transform="rotate(-149.092 57.4727 75.8229)" fill="url(#paint6_linear_669_2401)"/>
<path d="M63.5128 70.0592C62.773 71.2919 61.1744 71.6922 59.9409 70.9537L56.6156 68.963C55.3806 68.2236 54.9792 66.6229 55.7192 65.3883L70.1312 41.3439L77.9377 46.0259L63.5128 70.0592Z" fill="url(#paint7_linear_669_2401)"/>
<rect x="63.8008" y="69.5364" width="9.14715" height="2.15501" transform="rotate(-149.092 63.8008 69.5364)" fill="#ACAFBA"/>
<rect x="57.9199" y="68.9386" width="2.65978" height="21.6659" rx="1.32989" transform="rotate(-149.092 57.9199 68.9386)" fill="url(#paint8_linear_669_2401)"/>
<path d="M77.9355 46.0192L70.1353 41.3493L72.0289 39.9744L78.2046 43.6571L77.9355 46.0192Z" fill="#ACAFBA"/>
<path d="M80.4203 30.8705C81.2742 30.5022 82.2373 31.082 82.3113 32.0091L82.9259 39.7076C82.9942 40.563 82.5458 41.3766 81.7861 41.7757L78.2281 43.6451L72.0827 39.9735L72.0075 35.9497C71.9912 35.0797 72.5026 34.2861 73.3016 33.9414L80.4203 30.8705Z" fill="url(#paint9_linear_669_2401)"/>
<path d="M81.7572 30.8319C81.9263 30.9329 81.9821 31.152 81.8812 31.3212L78.7284 36.5986C78.6273 36.7678 78.4074 36.8232 78.2382 36.7221C78.0693 36.6209 78.0145 36.4015 78.1155 36.2324L81.2684 30.955C81.3694 30.7861 81.5881 30.7311 81.7572 30.8319Z" fill="white"/>
<ellipse cx="0.920941" cy="0.920956" rx="0.920941" ry="0.920956" transform="matrix(-0.999351 -0.0359943 0.0359916 -0.999353 79.5156 36.9816)" fill="white"/>
<g filter="url(#filter7_i_669_2401)">
<path d="M76.4771 50.4147C78.233 51.1309 77.68 55.0191 77.1532 56.1174C77.1532 56.1174 75.8892 59.521 73.3427 60.8538C70.2754 62.459 66.1967 61.7728 64.7635 58.6214C63.4352 55.701 64.8364 52.2466 67.7849 50.9821C70.1294 49.9767 73.9059 52.3202 74.0663 51.8005C74.2268 51.2808 74.7212 49.6985 76.4771 50.4147Z" fill="url(#paint10_linear_669_2401)"/>
</g>
<g opacity="0.8" filter="url(#filter8_f_669_2401)">
<ellipse cx="1.65249" cy="2.731" rx="1.65249" ry="2.731" transform="matrix(0.903519 0.428549 -0.428535 0.903525 67.6641 51.2125)" fill="white" fill-opacity="0.9"/>
</g>
<defs>
<filter id="filter0_i_669_2401" x="-1.31149" y="22.2275" width="20.1806" height="16.1174" filterUnits="userSpaceOnUse" color-interpolation-filters="sRGB">
<feFlood flood-opacity="0" result="BackgroundImageFix"/>
<feBlend mode="normal" in="SourceGraphic" in2="BackgroundImageFix" result="shape"/>
<feColorMatrix in="SourceAlpha" type="matrix" values="0 0 0 0 0 0 0 0 0 0 0 0 0 0 0 0 0 0 127 0" result="hardAlpha"/>
<feOffset dx="-3.68063" dy="-0.920157"/>
<feGaussianBlur stdDeviation="1.97834"/>
<feComposite in2="hardAlpha" operator="arithmetic" k2="-1" k3="1"/>
<feColorMatrix type="matrix" values="0 0 0 0 0.239978 0 0 0 0 0.443772 0 0 0 0 0.807692 0 0 0 0.7 0"/>
<feBlend mode="normal" in2="shape" result="effect1_innerShadow_669_2401"/>
</filter>
<filter id="filter1_i_669_2401" x="9.07516" y="-0.169564" width="63.1455" height="69.3204" filterUnits="userSpaceOnUse" color-interpolation-filters="sRGB">
<feFlood flood-opacity="0" result="BackgroundImageFix"/>
<feBlend mode="normal" in="SourceGraphic" in2="BackgroundImageFix" result="shape"/>
<feColorMatrix in="SourceAlpha" type="matrix" values="0 0 0 0 0 0 0 0 0 0 0 0 0 0 0 0 0 0 127 0" result="hardAlpha"/>
<feOffset dx="-3.64945" dy="-0.912362"/>
<feGaussianBlur stdDeviation="3.46698"/>
<feComposite in2="hardAlpha" operator="arithmetic" k2="-1" k3="1"/>
<feColorMatrix type="matrix" values="0 0 0 0 0.588129 0 0 0 0 0.639333 0 0 0 0 0.730769 0 0 0 1 0"/>
<feBlend mode="normal" in2="shape" result="effect1_innerShadow_669_2401"/>
</filter>
<filter id="filter2_i_669_2401" x="38.9802" y="33.8303" width="5.99635" height="5.99683" filterUnits="userSpaceOnUse" color-interpolation-filters="sRGB">
<feFlood flood-opacity="0" result="BackgroundImageFix"/>
<feBlend mode="normal" in="SourceGraphic" in2="BackgroundImageFix" result="shape"/>
<feColorMatrix in="SourceAlpha" type="matrix" values="0 0 0 0 0 0 0 0 0 0 0 0 0 0 0 0 0 0 127 0" result="hardAlpha"/>
<feOffset dx="-0.912362" dy="-0.912362"/>
<feGaussianBlur stdDeviation="0.456181"/>
<feComposite in2="hardAlpha" operator="arithmetic" k2="-1" k3="1"/>
<feColorMatrix type="matrix" values="0 0 0 0 0.329412 0 0 0 0 0.517647 0 0 0 0 0.866667 0 0 0 1 0"/>
<feBlend mode="normal" in2="shape" result="effect1_innerShadow_669_2401"/>
</filter>
<filter id="filter3_f_669_2401" x="47.0129" y="32.9747" width="13.9097" height="11.3163" filterUnits="userSpaceOnUse" color-interpolation-filters="sRGB">
<feFlood flood-opacity="0" result="BackgroundImageFix"/>
<feBlend mode="normal" in="SourceGraphic" in2="BackgroundImageFix" result="shape"/>
<feGaussianBlur stdDeviation="1.36854" result="effect1_foregroundBlur_669_2401"/>
</filter>
<filter id="filter4_f_669_2401" x="24.3469" y="32.915" width="13.9097" height="11.3163" filterUnits="userSpaceOnUse" color-interpolation-filters="sRGB">
<feFlood flood-opacity="0" result="BackgroundImageFix"/>
<feBlend mode="normal" in="SourceGraphic" in2="BackgroundImageFix" result="shape"/>
<feGaussianBlur stdDeviation="1.36854" result="effect1_foregroundBlur_669_2401"/>
</filter>
<filter id="filter5_f_669_2401" x="24.7786" y="33.4611" width="14.0288" height="11.4132" filterUnits="userSpaceOnUse" color-interpolation-filters="sRGB">
<feFlood flood-opacity="0" result="BackgroundImageFix"/>
<feBlend mode="normal" in="SourceGraphic" in2="BackgroundImageFix" result="shape"/>
<feGaussianBlur stdDeviation="1.38024" result="effect1_foregroundBlur_669_2401"/>
</filter>
<filter id="filter6_i_669_2401" x="18.7334" y="71.5797" width="42.7959" height="16.1512" filterUnits="userSpaceOnUse" color-interpolation-filters="sRGB">
<feFlood flood-opacity="0" result="BackgroundImageFix"/>
<feBlend mode="normal" in="SourceGraphic" in2="BackgroundImageFix" result="shape"/>
<feColorMatrix in="SourceAlpha" type="matrix" values="0 0 0 0 0 0 0 0 0 0 0 0 0 0 0 0 0 0 127 0" result="hardAlpha"/>
<feOffset dx="-3.68063" dy="-0.920157"/>
<feGaussianBlur stdDeviation="3.4966"/>
<feComposite in2="hardAlpha" operator="arithmetic" k2="-1" k3="1"/>
<feColorMatrix type="matrix" values="0 0 0 0 0.239978 0 0 0 0 0.443772 0 0 0 0 0.807692 0 0 0 0.7 0"/>
<feBlend mode="normal" in2="shape" result="effect1_innerShadow_669_2401"/>
</filter>
<filter id="filter7_i_669_2401" x="60.5791" y="49.3117" width="17.0927" height="12.3782" filterUnits="userSpaceOnUse" color-interpolation-filters="sRGB">
<feFlood flood-opacity="0" result="BackgroundImageFix"/>
<feBlend mode="normal" in="SourceGraphic" in2="BackgroundImageFix" result="shape"/>
<feColorMatrix in="SourceAlpha" type="matrix" values="0 0 0 0 0 0 0 0 0 0 0 0 0 0 0 0 0 0 127 0" result="hardAlpha"/>
<feOffset dx="-3.68063" dy="-0.920157"/>
<feGaussianBlur stdDeviation="1.97834"/>
<feComposite in2="hardAlpha" operator="arithmetic" k2="-1" k3="1"/>
<feColorMatrix type="matrix" values="0 0 0 0 0.239978 0 0 0 0 0.443772 0 0 0 0 0.807692 0 0 0 0.6 0"/>
<feBlend mode="normal" in2="shape" result="effect1_innerShadow_669_2401"/>
</filter>
<filter id="filter8_f_669_2401" x="63.3294" y="49.06" width="9.31587" height="10.6566" filterUnits="userSpaceOnUse" color-interpolation-filters="sRGB">
<feFlood flood-opacity="0" result="BackgroundImageFix"/>
<feBlend mode="normal" in="SourceGraphic" in2="BackgroundImageFix" result="shape"/>
<feGaussianBlur stdDeviation="1.38024" result="effect1_foregroundBlur_669_2401"/>
</filter>
<linearGradient id="paint0_linear_669_2401" x1="15.7624" y1="24.0166" x2="14.5413" y2="50.4961" gradientUnits="userSpaceOnUse">
<stop stop-color="#A1C2FF"/>
<stop offset="0.307692" stop-color="#87B1FF"/>
<stop offset="1" stop-color="#4F76C0"/>
</linearGradient>
<radialGradient id="paint1_radial_669_2401" cx="0" cy="0" r="1" gradientTransform="matrix(-2.4263 95.3174 -82.9573 -2.11403 46.826 97.3247)" gradientUnits="userSpaceOnUse">
<stop offset="0.140719" stop-color="#639FFF"/>
<stop offset="0.59456" stop-color="#A9B7C6"/>
<stop offset="1" stop-color="#C3D2E1"/>
</radialGradient>
<linearGradient id="paint2_linear_669_2401" x1="44.4326" y1="40.6852" x2="40.3403" y2="35.0853" gradientUnits="userSpaceOnUse">
<stop stop-color="#146EFF"/>
<stop offset="0.658807" stop-color="#81B1FF"/>
<stop offset="1" stop-color="white"/>
</linearGradient>
<linearGradient id="paint3_linear_669_2401" x1="33.2417" y1="72.4999" x2="72.4743" y2="97.8866" gradientUnits="userSpaceOnUse">
<stop stop-color="#A1C2FF"/>
<stop offset="0.307692" stop-color="#146EFF"/>
<stop offset="1" stop-color="#2D6BDE"/>
</linearGradient>
<linearGradient id="paint4_linear_669_2401" x1="71.929" y1="21.5779" x2="81.927" y2="39.4648" gradientUnits="userSpaceOnUse">
<stop stop-color="#2073FA"/>
<stop offset="0.875886" stop-color="#76A4F9"/>
</linearGradient>
<linearGradient id="paint5_linear_669_2401" x1="86" y1="16.496" x2="83.8682" y2="19.4652" gradientUnits="userSpaceOnUse">
<stop stop-color="#2073FA"/>
<stop offset="0.875886" stop-color="#71A1F9"/>
</linearGradient>
<linearGradient id="paint6_linear_669_2401" x1="59.8088" y1="75.8229" x2="60.278" y2="80.5265" gradientUnits="userSpaceOnUse">
<stop offset="0.0944916" stop-color="#26282C"/>
<stop offset="1" stop-color="#393B42"/>
</linearGradient>
<linearGradient id="paint7_linear_669_2401" x1="58.2911" y1="69.9661" x2="74.0294" y2="43.6777" gradientUnits="userSpaceOnUse">
<stop stop-color="#646773"/>
<stop offset="1" stop-color="#3F4041"/>
</linearGradient>
<linearGradient id="paint8_linear_669_2401" x1="59.2498" y1="68.9386" x2="59.2498" y2="90.6045" gradientUnits="userSpaceOnUse">
<stop stop-color="#393B42"/>
<stop offset="1" stop-color="#25272A"/>
</linearGradient>
<linearGradient id="paint9_linear_669_2401" x1="82.1207" y1="30.0961" x2="75.1313" y2="41.7949" gradientUnits="userSpaceOnUse">
<stop stop-color="#484953"/>
<stop offset="1" stop-color="#242629"/>
</linearGradient>
<linearGradient id="paint10_linear_669_2401" x1="70.6129" y1="48.3893" x2="92.3491" y2="70.0073" gradientUnits="userSpaceOnUse">
<stop stop-color="#8BB3FF"/>
<stop offset="0.307692" stop-color="#2871EA"/>
</linearGradient>
</defs>
</svg>
