<svg width="20" height="20" viewBox="0 0 20 20" fill="none" xmlns="http://www.w3.org/2000/svg">
<path d="M10.5 17C14.0899 17 17 14.0899 17 10.5C17 6.91015 14.0899 4 10.5 4C6.91015 4 4 6.91015 4 10.5C4 14.0899 6.91015 17 10.5 17Z" stroke="#8E919C" stroke-width="1.3" stroke-linecap="round" stroke-linejoin="round"/>
<path d="M8.29961 8.9C8.18915 8.9 8.09961 8.81046 8.09961 8.7C8.09961 8.58954 8.18915 8.5 8.29961 8.5" stroke="#8E919C" stroke-width="1.3" stroke-linecap="round" stroke-linejoin="round"/>
<path d="M8.30078 8.9C8.41124 8.9 8.50078 8.81046 8.50078 8.7C8.50078 8.58954 8.41124 8.5 8.30078 8.5" stroke="#8E919C" stroke-width="1.3" stroke-linecap="round" stroke-linejoin="round"/>
<path d="M12.7 8.9C12.5895 8.9 12.5 8.81046 12.5 8.7C12.5 8.58954 12.5895 8.5 12.7 8.5" stroke="#8E919C" stroke-width="1.3" stroke-linecap="round" stroke-linejoin="round"/>
<path d="M12.6992 8.9C12.8097 8.9 12.8992 8.81046 12.8992 8.7C12.8992 8.58954 12.8097 8.5 12.6992 8.5" stroke="#8E919C" stroke-width="1.3" stroke-linecap="round" stroke-linejoin="round"/>
<circle cx="10.5" cy="12.5" r="2" stroke="#8E919C"/>
</svg>
