<svg width="69" height="74" viewBox="0 0 69 74" fill="none" xmlns="http://www.w3.org/2000/svg">
<g filter="url(#filter0_i_322_1918)">
<path d="M11.1744 44.0465C10.5465 43.4169 9.50923 43.4148 8.88128 44.0443L4.98063 47.9547C4.1952 48.7421 4.1952 50.0187 4.98061 50.8061L8.11241 53.9458C8.88091 54.7162 8.84892 55.9594 8.47628 56.9829C7.77647 58.905 8.27407 61.2427 9.92212 62.8949C11.5702 64.5471 13.902 65.046 15.8193 64.3445C16.8403 63.9709 18.0803 63.9389 18.8488 64.7093L22.6166 68.4866C23.402 69.274 24.6754 69.274 25.4609 68.4866L29.0861 64.8523C29.8585 64.078 29.8375 62.7567 29.0651 61.9823C26.8612 59.7729 26.7147 56.3376 28.0023 55.0468C30.0254 53.0186 32.7166 53.9029 34.9205 56.1123C35.6929 56.8867 37.0109 56.9077 37.7833 56.1334L41.4168 52.4908C42.2022 51.7035 42.2022 50.4269 41.4168 49.6395L37.6109 45.824C36.8563 45.0675 36.8608 43.8528 37.258 42.8598C38.0493 40.8813 37.7726 38.4239 36.1307 36.7778C34.4865 35.1295 31.938 34.7604 29.9204 35.5149C28.9205 35.8889 27.7053 35.8933 26.9507 35.1368L23.7808 31.9589C22.9954 31.1715 21.722 31.1715 20.9365 31.9589L17.0277 35.8776C16.3997 36.5071 16.4018 37.5469 17.0298 38.1764C19.2337 40.3859 20.1157 43.0839 18.0926 45.112C16.8049 46.4029 13.3783 46.2559 11.1744 44.0465Z" fill="url(#paint0_linear_322_1918)"/>
</g>
<g filter="url(#filter1_i_322_1918)">
<path d="M31.8394 21.2626C32.6065 20.4935 32.5796 19.2578 32.1682 18.2514C31.4021 16.3769 31.7528 14.1755 33.2355 12.6891C34.7185 11.2024 36.9145 10.8507 38.7842 11.6187C39.7881 12.0311 41.0208 12.0581 41.7879 11.289L44.6351 8.43472C45.4205 7.64734 46.6939 7.64734 47.4793 8.43472L50.2171 11.1794C50.9734 11.9376 52.1871 11.9195 53.1929 11.5548C55.0234 10.891 57.1853 11.3208 58.6861 12.8254C60.1866 14.3297 60.6124 16.4939 59.9491 18.3275C59.5844 19.3355 59.5663 20.5521 60.3227 21.3103L63.6561 24.6522C64.4416 25.4396 64.4416 26.7162 63.6561 27.5036L48.0211 43.1778C47.2357 43.9652 45.9623 43.9652 45.1769 43.1778L41.5408 39.5326C40.9609 38.9512 40.9609 38.0086 41.5408 37.4271C43.5296 35.4334 43.4911 32.1624 41.4443 30.1104C39.3972 28.0582 36.1258 28.0111 34.1371 30.0048C33.5571 30.5862 32.6168 30.5862 32.0369 30.0048L29.0001 26.9604C28.2146 26.173 28.2146 24.8964 29.0001 24.109L31.8394 21.2626Z" fill="url(#paint1_linear_322_1918)"/>
</g>
<defs>
<filter id="filter0_i_322_1918" x="1.37006" y="29.3547" width="40.6358" height="39.7225" filterUnits="userSpaceOnUse" color-interpolation-filters="sRGB">
<feFlood flood-opacity="0" result="BackgroundImageFix"/>
<feBlend mode="normal" in="SourceGraphic" in2="BackgroundImageFix" result="shape"/>
<feColorMatrix in="SourceAlpha" type="matrix" values="0 0 0 0 0 0 0 0 0 0 0 0 0 0 0 0 0 0 127 0" result="hardAlpha"/>
<feOffset dx="-3.02057" dy="-2.01371"/>
<feGaussianBlur stdDeviation="1.86268"/>
<feComposite in2="hardAlpha" operator="arithmetic" k2="-1" k3="1"/>
<feColorMatrix type="matrix" values="0 0 0 0 1 0 0 0 0 0.466346 0 0 0 0 0.466346 0 0 0 1 0"/>
<feBlend mode="normal" in2="shape" result="effect1_innerShadow_322_1918"/>
</filter>
<filter id="filter1_i_322_1918" x="25.3896" y="5.83053" width="38.8565" height="37.9379" filterUnits="userSpaceOnUse" color-interpolation-filters="sRGB">
<feFlood flood-opacity="0" result="BackgroundImageFix"/>
<feBlend mode="normal" in="SourceGraphic" in2="BackgroundImageFix" result="shape"/>
<feColorMatrix in="SourceAlpha" type="matrix" values="0 0 0 0 0 0 0 0 0 0 0 0 0 0 0 0 0 0 127 0" result="hardAlpha"/>
<feOffset dx="-3.02057" dy="-2.01371"/>
<feGaussianBlur stdDeviation="1.86268"/>
<feComposite in2="hardAlpha" operator="arithmetic" k2="-1" k3="1"/>
<feColorMatrix type="matrix" values="0 0 0 0 1 0 0 0 0 0.466346 0 0 0 0 0.466346 0 0 0 1 0"/>
<feBlend mode="normal" in2="shape" result="effect1_innerShadow_322_1918"/>
</filter>
<linearGradient id="paint0_linear_322_1918" x1="24.7184" y1="56.3197" x2="26.5497" y2="42.8866" gradientUnits="userSpaceOnUse">
<stop stop-color="#FF9D9D"/>
<stop offset="1" stop-color="#FFD6D6"/>
</linearGradient>
<linearGradient id="paint1_linear_322_1918" x1="52.0293" y1="26.1367" x2="36.6176" y2="24.366" gradientUnits="userSpaceOnUse">
<stop stop-color="#FF9D9D"/>
<stop offset="1" stop-color="#FFD6D6"/>
</linearGradient>
</defs>
</svg>
