<svg width="54" height="52" viewBox="0 0 54 52" fill="none" xmlns="http://www.w3.org/2000/svg">
<g filter="url(#filter0_i_322_1858)">
<path d="M19.5 0C15.7611 0 12.479 2.14055 10.6188 5.36366C10.0567 6.33768 9.09613 7.03797 8.00942 7.32743C3.41269 8.55181 0 13.0886 0 18.5C0 22.5632 1.92556 26.1313 4.83044 28.1765C5.39992 28.5774 5.8624 29.1176 6.15817 29.7482C7.89935 33.4599 11.4277 36 15.5 36C16.5303 36 17.5253 35.8365 18.4655 35.5327C19.5931 35.1685 20.847 35.275 21.8913 35.835C23.2826 36.581 24.8465 37 26.5 37C28.5554 37 30.4718 36.3521 32.0902 35.2336C33.176 34.4832 34.5849 34.2675 35.854 34.6298C36.6992 34.8711 37.5857 35 38.5 35C42.1344 35 45.3363 32.977 47.2209 29.9036C47.5563 29.3568 48.0235 28.9008 48.5722 28.5685C51.808 26.6094 54 22.836 54 18.5C54 12.1487 49.299 7 43.5 7C43.3017 7 43.1217 6.88439 43.0449 6.70151C41.3846 2.74627 37.7352 0 33.5 0C31.7972 0 30.1895 0.44444 28.7676 1.23278C27.3874 1.99802 25.6126 1.99802 24.2324 1.23278C22.8105 0.44444 21.2028 0 19.5 0Z" fill="url(#paint0_linear_322_1858)"/>
</g>
<circle cx="3" cy="3" r="3" transform="matrix(-1 0 0 1 40 16)" fill="#F9F9F9"/>
<circle cx="3" cy="3" r="3" transform="matrix(-1 0 0 1 30 16)" fill="#F9F9F9"/>
<circle cx="3" cy="3" r="3" transform="matrix(-1 0 0 1 21 16)" fill="#F9F9F9"/>
<g filter="url(#filter1_i_322_1858)">
<circle cx="4" cy="4" r="4" transform="matrix(-1 0 0 1 48 37)" fill="#FFCE64"/>
</g>
<g filter="url(#filter2_i_322_1858)">
<circle cx="3" cy="3" r="3" transform="matrix(-1 0 0 1 40 46)" fill="#FFCE64"/>
</g>
<defs>
<filter id="filter0_i_322_1858" x="-3.11921" y="-2.07947" width="57.1192" height="39.0795" filterUnits="userSpaceOnUse" color-interpolation-filters="sRGB">
<feFlood flood-opacity="0" result="BackgroundImageFix"/>
<feBlend mode="normal" in="SourceGraphic" in2="BackgroundImageFix" result="shape"/>
<feColorMatrix in="SourceAlpha" type="matrix" values="0 0 0 0 0 0 0 0 0 0 0 0 0 0 0 0 0 0 127 0" result="hardAlpha"/>
<feOffset dx="-3.11921" dy="-2.07947"/>
<feGaussianBlur stdDeviation="3.11014"/>
<feComposite in2="hardAlpha" operator="arithmetic" k2="-1" k3="1"/>
<feColorMatrix type="matrix" values="0 0 0 0 1 0 0 0 0 0.684175 0 0 0 0 0.000961597 0 0 0 1 0"/>
<feBlend mode="normal" in2="shape" result="effect1_innerShadow_322_1858"/>
</filter>
<filter id="filter1_i_322_1858" x="38.0682" y="37" width="9.93177" height="8" filterUnits="userSpaceOnUse" color-interpolation-filters="sRGB">
<feFlood flood-opacity="0" result="BackgroundImageFix"/>
<feBlend mode="normal" in="SourceGraphic" in2="BackgroundImageFix" result="shape"/>
<feColorMatrix in="SourceAlpha" type="matrix" values="0 0 0 0 0 0 0 0 0 0 0 0 0 0 0 0 0 0 127 0" result="hardAlpha"/>
<feOffset dx="-1.93177"/>
<feGaussianBlur stdDeviation="1.66132"/>
<feComposite in2="hardAlpha" operator="arithmetic" k2="-1" k3="1"/>
<feColorMatrix type="matrix" values="0 0 0 0 1 0 0 0 0 0.684175 0 0 0 0 0.000961597 0 0 0 1 0"/>
<feBlend mode="normal" in2="shape" result="effect1_innerShadow_322_1858"/>
</filter>
<filter id="filter2_i_322_1858" x="32.0682" y="46" width="7.93177" height="6" filterUnits="userSpaceOnUse" color-interpolation-filters="sRGB">
<feFlood flood-opacity="0" result="BackgroundImageFix"/>
<feBlend mode="normal" in="SourceGraphic" in2="BackgroundImageFix" result="shape"/>
<feColorMatrix in="SourceAlpha" type="matrix" values="0 0 0 0 0 0 0 0 0 0 0 0 0 0 0 0 0 0 127 0" result="hardAlpha"/>
<feOffset dx="-1.93177"/>
<feGaussianBlur stdDeviation="1.66132"/>
<feComposite in2="hardAlpha" operator="arithmetic" k2="-1" k3="1"/>
<feColorMatrix type="matrix" values="0 0 0 0 1 0 0 0 0 0.684175 0 0 0 0 0.000961597 0 0 0 1 0"/>
<feBlend mode="normal" in2="shape" result="effect1_innerShadow_322_1858"/>
</filter>
<linearGradient id="paint0_linear_322_1858" x1="38.8423" y1="28.4864" x2="27.1645" y2="0.0242519" gradientUnits="userSpaceOnUse">
<stop stop-color="#FFCE64"/>
<stop offset="1" stop-color="#FFE19F"/>
</linearGradient>
</defs>
</svg>
