<svg width="24" height="24" viewBox="0 0 24 24" fill="none" xmlns="http://www.w3.org/2000/svg">
<path d="M14.1169 2.8912C14.3504 3.39174 14.1338 3.98672 13.6333 4.22013L13.5149 4.27533C12.934 4.54619 12.7543 5.28588 13.1462 5.79304L16.415 10.0238C16.7009 10.3938 17.2051 10.5163 17.629 10.3187L18.2529 10.0277C18.7534 9.79432 19.3484 10.0109 19.5818 10.5114L20.054 11.5239C20.2874 12.0245 20.0708 12.6195 19.5703 12.8529L16.146 14.4496C15.6454 14.6831 15.4289 15.278 15.6623 15.7786L16.7228 18.0528C16.8303 18.2833 16.8459 18.5461 16.7664 18.7878L16.2721 20.2913C16.182 20.5655 15.8797 20.7064 15.6118 20.5992L14.1423 20.0114C13.9061 19.917 13.7148 19.7361 13.6073 19.5056L12.5468 17.2313C12.3134 16.7308 11.7185 16.5142 11.2179 16.7476L7.78828 18.3469C7.28774 18.5803 6.69276 18.3637 6.45936 17.8632L5.98721 16.8507C5.75381 16.3502 5.97036 15.7552 6.4709 15.5218L7.18455 15.189C7.61625 14.9877 7.84605 14.5098 7.73375 14.0469L6.47948 8.87677C6.33061 8.26314 5.65732 7.93937 5.08505 8.20622L4.99147 8.24986C4.49093 8.48326 3.89595 8.26671 3.66255 7.76617L3.18999 6.75277C2.95659 6.25223 3.17314 5.65725 3.67368 5.42384L12.3155 1.39411C12.816 1.1607 13.411 1.37726 13.6444 1.8778L14.1169 2.8912Z" fill="#50AFFF"/>
</svg>
