<svg width="28" height="28" viewBox="0 0 28 28" fill="none" xmlns="http://www.w3.org/2000/svg">
<rect width="28" height="28" rx="14" fill="#D7ECFF"/>
<rect width="28" height="28" rx="14" fill="#D7ECFF"/>
<g clip-path="url(#clip0_699_5200)">
<path d="M7.47636 19.9574L7.03708 12.4574C7.02794 12.3819 7.03501 12.3052 7.05781 12.2326C7.08061 12.16 7.11862 12.0931 7.16931 12.0363C7.22 11.9796 7.2822 11.9343 7.35177 11.9034C7.42134 11.8726 7.49669 11.8569 7.57279 11.8574H12.5121C12.6322 11.8582 12.7487 11.8985 12.8436 11.9721C12.9385 12.0456 13.0065 12.1485 13.0371 12.2646L13.4656 14.0003H20.4299C20.504 14.0001 20.5774 14.0152 20.6453 14.0448C20.7133 14.0743 20.7744 14.1177 20.8247 14.172C20.8751 14.2264 20.9136 14.2906 20.9379 14.3607C20.9621 14.4307 20.9716 14.505 20.9656 14.5789L20.5478 19.936C20.5262 20.2051 20.4039 20.456 20.2052 20.6388C20.0066 20.8215 19.7463 20.9226 19.4764 20.9217H8.54779C8.28125 20.9231 8.02379 20.825 7.82567 20.6467C7.62756 20.4684 7.50301 20.2226 7.47636 19.9574Z" stroke="#484953" stroke-width="1.33333" stroke-linecap="round" stroke-linejoin="round"/>
<path d="M10.25 9.71373V7.57087C10.25 7.42879 10.3064 7.29253 10.4069 7.19206C10.5074 7.0916 10.6436 7.03516 10.7857 7.03516H19.8929C20.0349 7.03516 20.1712 7.0916 20.2717 7.19206C20.3721 7.29253 20.4286 7.42879 20.4286 7.57087V11.8566" stroke="#484953" stroke-width="1.33333" stroke-linecap="round" stroke-linejoin="round"/>
<path d="M14.5352 9.71387H17.7494" stroke="#484953" stroke-width="1.33333" stroke-linecap="round" stroke-linejoin="round"/>
</g>
<defs>
<clipPath id="clip0_699_5200">
<rect width="15" height="15" fill="white" transform="translate(6.5 6.5)"/>
</clipPath>
</defs>
</svg>
