<svg width="28" height="28" viewBox="0 0 28 28" fill="none" xmlns="http://www.w3.org/2000/svg">
<rect width="28" height="28" rx="14" fill="#D7ECFF"/>
<path d="M8 13.4044C8 12.0883 8.35189 10.8018 9.01118 9.70744C9.67047 8.61312 10.6075 7.7602 11.7039 7.25654C12.8003 6.75288 14.0067 6.6211 15.1705 6.87787C16.3344 7.13463 17.4035 7.7684 18.2426 8.69904C19.0818 9.62969 19.6532 10.8154 19.8847 12.1062C20.1162 13.3971 19.9974 14.7351 19.5433 15.951C19.5433 16.3526 19.5433 17.0392 19.5433 17.7499C19.5433 18.8545 18.6478 19.75 17.5433 19.75C16.8799 19.75 16.2305 19.75 15.8068 19.75" stroke="#484953" stroke-width="1.33" stroke-linecap="round"/>
<path d="M8.84863 11.415C9.11709 11.415 9.33496 11.6329 9.33496 11.9014V16.4082C9.3347 16.7819 9.03187 17.0847 8.6582 17.085C7.55766 17.085 6.66504 16.1923 6.66504 15.0918V13.5986C6.66519 12.3927 7.64272 11.4152 8.84863 11.415Z" fill="#D7ECFF" stroke="#484953" stroke-width="1.33"/>
<path d="M19.3418 11.415C18.9681 11.4153 18.6653 11.7181 18.665 12.0918V16.4082C18.6653 16.7819 18.9681 17.0847 19.3418 17.085C20.4423 17.085 21.335 16.1923 21.335 15.0918V13.4082C21.335 12.3077 20.4423 11.415 19.3418 11.415Z" fill="#D7ECFF" stroke="#484953" stroke-width="1.33"/>
<rect x="13.165" y="20.585" width="1.67" height="3.67" rx="0.835" transform="rotate(-90 13.165 20.585)" fill="#D7ECFF" stroke="#484953" stroke-width="1.33"/>
</svg>
