<svg width="28" height="28" viewBox="0 0 28 28" fill="none" xmlns="http://www.w3.org/2000/svg">
<rect width="28" height="28" rx="14" fill="#D7ECFF"/>
<g clip-path="url(#clip0_699_5210)">
<path d="M14.5346 16.1436L11.3203 16.7222L11.856 13.4651L17.9953 7.3472C18.0949 7.24678 18.2134 7.16707 18.344 7.11267C18.4745 7.05828 18.6146 7.03027 18.756 7.03027C18.8975 7.03027 19.0375 7.05828 19.1681 7.11267C19.2986 7.16707 19.4171 7.24678 19.5167 7.3472L20.6525 8.48291C20.7529 8.58252 20.8326 8.70102 20.887 8.83158C20.9414 8.96215 20.9694 9.10219 20.9694 9.24363C20.9694 9.38507 20.9414 9.52511 20.887 9.65567C20.8326 9.78624 20.7529 9.90474 20.6525 10.0043L14.5346 16.1436Z" stroke="#484953" stroke-width="1.33333" stroke-linecap="round" stroke-linejoin="round"/>
<path d="M19.3566 16.6783V19.8926C19.3566 20.1767 19.2437 20.4493 19.0428 20.6502C18.8418 20.8511 18.5693 20.964 18.2852 20.964H8.10658C7.82242 20.964 7.5499 20.8511 7.34897 20.6502C7.14804 20.4493 7.03516 20.1767 7.03516 19.8926V9.71401C7.03516 9.42985 7.14804 9.15732 7.34897 8.95639C7.5499 8.75546 7.82242 8.64258 8.10658 8.64258H11.3209" stroke="#484953" stroke-width="1.33333" stroke-linecap="round" stroke-linejoin="round"/>
</g>
<defs>
<clipPath id="clip0_699_5210">
<rect width="15" height="15" fill="white" transform="translate(6.5 6.5)"/>
</clipPath>
</defs>
</svg>
