<svg width="143" height="140" viewBox="0 0 143 140" fill="none" xmlns="http://www.w3.org/2000/svg">
<g filter="url(#filter0_i_3447_10202)">
<path d="M79.7373 0C84.2405 0.000193298 87.8906 3.54736 87.8906 7.92285C87.8906 8.47468 87.8322 9.01319 87.7217 9.5332C87.507 10.8871 86.9089 11.9265 86.1592 12.8008C85.7813 13.2697 85.3514 13.6967 84.876 14.0723C83.3421 15.4083 81.7107 16.4472 81.3467 18.0459L116.326 67.2334C119.449 71.6253 119.653 77.457 116.843 82.0557L102.921 104.838C100.475 108.84 96.1238 111.281 91.4336 111.281H49.6338C44.9853 111.281 40.6652 108.883 38.207 104.938L24.0049 82.1426C21.115 77.5041 21.3162 71.5786 24.5137 67.1465L59.4453 18.7256C59.4494 16.7213 57.5809 15.5888 55.8398 14.0723C55.3645 13.6967 54.9344 13.2697 54.5566 12.8008C53.8071 11.9266 53.2087 10.887 52.9941 9.5332C52.8836 9.01324 52.8262 8.47461 52.8262 7.92285C52.8262 3.54733 56.4763 0.000145225 60.9795 0C65.3869 0 68.9751 3.39781 69.126 7.64453C69.1311 7.64656 69.1338 7.64746 69.1338 7.64746V9.35645C69.9422 9.21025 70.7676 9.17977 71.583 9.2666V7.64746C71.5833 7.64733 71.5856 7.64622 71.5898 7.64453C71.7407 3.39779 75.3299 0 79.7373 0Z" fill="url(#paint0_radial_3447_10202)"/>
</g>
<path d="M70.3906 8.29932C71.0659 8.29932 71.6133 8.84672 71.6133 9.52197V57.61C71.6133 59.5873 73.2157 61.1521 75.1887 61.2819C78.2384 61.4824 80.3115 62.0929 80.3115 63.9458C80.3115 66.6306 75.959 70.9046 70.5898 70.9048C65.2205 70.9048 60.8672 66.6306 60.8672 63.9458C60.8672 62.1723 62.7666 61.537 65.6038 61.3099C67.5709 61.1525 69.168 59.5952 69.168 57.6218V9.52197C69.168 8.84672 69.7154 8.29932 70.3906 8.29932Z" fill="white"/>
<g filter="url(#filter1_i_3447_10202)">
<ellipse cx="70.2868" cy="59.4667" rx="4.13838" ry="4.13859" fill="url(#paint1_linear_3447_10202)"/>
</g>
<g opacity="0.8" filter="url(#filter2_f_3447_10202)">
<ellipse cx="89.0691" cy="61.6137" rx="6.86602" ry="4.75538" fill="white"/>
</g>
<g opacity="0.8" filter="url(#filter3_f_3447_10202)">
<ellipse cx="52.1668" cy="61.6137" rx="6.86602" ry="4.75538" fill="white"/>
</g>
<g filter="url(#filter4_i_3447_10202)">
<path d="M44.0335 120.036C45.5712 117.19 48.5455 115.416 51.7803 115.416H85.2246C88.4199 115.416 91.3644 117.147 92.9184 119.939L99.4492 131.673C101.528 135.408 98.8275 140.001 94.5531 140.001H42.6426C38.3992 140.001 35.6957 135.468 37.7128 131.734L44.0335 120.036Z" fill="url(#paint2_linear_3447_10202)"/>
</g>
<ellipse cx="79.1935" cy="54.2127" rx="3.67787" ry="3.67805" fill="#1D3156"/>
<ellipse cx="61.5529" cy="54.2127" rx="3.67787" ry="3.67805" fill="#1D3156"/>
<path d="M75.6322 43.4933C76.6399 42.1257 79.7533 40.219 84.145 43.533" stroke="#1D3156" stroke-width="1.90732" stroke-linecap="round"/>
<path d="M64.9096 43.3312C63.9434 41.9339 60.8888 39.9345 56.3994 43.1149" stroke="#1D3156" stroke-width="1.90732" stroke-linecap="round"/>
<g filter="url(#filter5_i_3447_10202)">
<path d="M119.97 38.2957C121.531 39.6872 120.698 42.1559 121.76 43.329C122.822 44.5021 130.184 39.4853 136.007 45.6627C141.218 51.1919 139.757 57.8 134.591 61.5321C129.816 64.9821 123.837 65.1918 118.725 62.2636C114.729 59.9748 113.1 51.8272 111.812 46.6845C110.523 41.5418 111.971 38.5388 113.985 37.4747C116.096 36.3598 118.188 36.7068 119.97 38.2957Z" fill="url(#paint3_linear_3447_10202)"/>
</g>
<g opacity="0.8" filter="url(#filter6_f_3447_10202)">
<ellipse cx="2.53435" cy="4.18844" rx="2.53435" ry="4.18844" transform="matrix(-0.903517 0.428552 0.428532 0.903527 132.879 45.0356)" fill="white" fill-opacity="0.9"/>
</g>
<g filter="url(#filter7_i_3447_10202)">
<path d="M22.0416 38.2957C20.4808 39.6872 21.3141 42.1559 20.2518 43.329C19.1895 44.5021 11.8276 39.4853 6.00506 45.6627C0.793406 51.1919 2.25453 57.8 7.42063 61.5321C12.1962 64.9821 18.1743 65.1918 23.2865 62.2636C27.2826 59.9748 28.9117 51.8272 30.2 46.6845C31.4884 41.5418 30.0412 38.5388 28.0265 37.4747C25.9153 36.3598 23.8236 36.7068 22.0416 38.2957Z" fill="url(#paint4_linear_3447_10202)"/>
</g>
<g opacity="0.8" filter="url(#filter8_f_3447_10202)">
<ellipse cx="2.53435" cy="4.18844" rx="2.53435" ry="4.18844" transform="matrix(0.903517 0.428552 -0.428532 0.903527 9.13281 45.0356)" fill="white" fill-opacity="0.9"/>
</g>
<defs>
<filter id="filter0_i_3447_10202" x="16.0279" y="-1.4852" width="102.788" height="112.766" filterUnits="userSpaceOnUse" color-interpolation-filters="sRGB">
<feFlood flood-opacity="0" result="BackgroundImageFix"/>
<feBlend mode="normal" in="SourceGraphic" in2="BackgroundImageFix" result="shape"/>
<feColorMatrix in="SourceAlpha" type="matrix" values="0 0 0 0 0 0 0 0 0 0 0 0 0 0 0 0 0 0 127 0" result="hardAlpha"/>
<feOffset dx="-5.94082" dy="-1.4852"/>
<feGaussianBlur stdDeviation="5.64377"/>
<feComposite in2="hardAlpha" operator="arithmetic" k2="-1" k3="1"/>
<feColorMatrix type="matrix" values="0 0 0 0 0.588129 0 0 0 0 0.639333 0 0 0 0 0.730769 0 0 0 1 0"/>
<feBlend mode="normal" in2="shape" result="effect1_innerShadow_3447_10202"/>
</filter>
<filter id="filter1_i_3447_10202" x="64.6632" y="53.8429" width="9.76255" height="9.76243" filterUnits="userSpaceOnUse" color-interpolation-filters="sRGB">
<feFlood flood-opacity="0" result="BackgroundImageFix"/>
<feBlend mode="normal" in="SourceGraphic" in2="BackgroundImageFix" result="shape"/>
<feColorMatrix in="SourceAlpha" type="matrix" values="0 0 0 0 0 0 0 0 0 0 0 0 0 0 0 0 0 0 127 0" result="hardAlpha"/>
<feOffset dx="-1.4852" dy="-1.4852"/>
<feGaussianBlur stdDeviation="0.742602"/>
<feComposite in2="hardAlpha" operator="arithmetic" k2="-1" k3="1"/>
<feColorMatrix type="matrix" values="0 0 0 0 0.329412 0 0 0 0 0.517647 0 0 0 0 0.866667 0 0 0 1 0"/>
<feBlend mode="normal" in2="shape" result="effect1_innerShadow_3447_10202"/>
</filter>
<filter id="filter2_f_3447_10202" x="77.7475" y="52.4027" width="22.6417" height="18.422" filterUnits="userSpaceOnUse" color-interpolation-filters="sRGB">
<feFlood flood-opacity="0" result="BackgroundImageFix"/>
<feBlend mode="normal" in="SourceGraphic" in2="BackgroundImageFix" result="shape"/>
<feGaussianBlur stdDeviation="2.22781" result="effect1_foregroundBlur_3447_10202"/>
</filter>
<filter id="filter3_f_3447_10202" x="40.8452" y="52.4027" width="22.6417" height="18.422" filterUnits="userSpaceOnUse" color-interpolation-filters="sRGB">
<feFlood flood-opacity="0" result="BackgroundImageFix"/>
<feBlend mode="normal" in="SourceGraphic" in2="BackgroundImageFix" result="shape"/>
<feGaussianBlur stdDeviation="2.22781" result="effect1_foregroundBlur_3447_10202"/>
</filter>
<filter id="filter4_i_3447_10202" x="31.0904" y="113.931" width="69.0736" height="26.07" filterUnits="userSpaceOnUse" color-interpolation-filters="sRGB">
<feFlood flood-opacity="0" result="BackgroundImageFix"/>
<feBlend mode="normal" in="SourceGraphic" in2="BackgroundImageFix" result="shape"/>
<feColorMatrix in="SourceAlpha" type="matrix" values="0 0 0 0 0 0 0 0 0 0 0 0 0 0 0 0 0 0 127 0" result="hardAlpha"/>
<feOffset dx="-5.94082" dy="-1.4852"/>
<feGaussianBlur stdDeviation="5.64377"/>
<feComposite in2="hardAlpha" operator="arithmetic" k2="-1" k3="1"/>
<feColorMatrix type="matrix" values="0 0 0 0 0.239978 0 0 0 0 0.443772 0 0 0 0 0.807692 0 0 0 0.7 0"/>
<feBlend mode="normal" in2="shape" result="effect1_innerShadow_3447_10202"/>
</filter>
<filter id="filter5_i_3447_10202" x="105.258" y="35.3076" width="34.0079" height="28.9951" filterUnits="userSpaceOnUse" color-interpolation-filters="sRGB">
<feFlood flood-opacity="0" result="BackgroundImageFix"/>
<feBlend mode="normal" in="SourceGraphic" in2="BackgroundImageFix" result="shape"/>
<feColorMatrix in="SourceAlpha" type="matrix" values="0 0 0 0 0 0 0 0 0 0 0 0 0 0 0 0 0 0 127 0" result="hardAlpha"/>
<feOffset dx="-6.06648" dy="-1.51662"/>
<feGaussianBlur stdDeviation="5.76315"/>
<feComposite in2="hardAlpha" operator="arithmetic" k2="-1" k3="1"/>
<feColorMatrix type="matrix" values="0 0 0 0 0.0915644 0 0 0 0 0.319641 0 0 0 0 0.726923 0 0 0 0.7 0"/>
<feBlend mode="normal" in2="shape" result="effect1_innerShadow_3447_10202"/>
</filter>
<filter id="filter6_f_3447_10202" x="124.526" y="41.0212" width="15.714" height="17.7699" filterUnits="userSpaceOnUse" color-interpolation-filters="sRGB">
<feFlood flood-opacity="0" result="BackgroundImageFix"/>
<feBlend mode="normal" in="SourceGraphic" in2="BackgroundImageFix" result="shape"/>
<feGaussianBlur stdDeviation="2.47342" result="effect1_foregroundBlur_3447_10202"/>
</filter>
<filter id="filter7_i_3447_10202" x="-3.32038" y="35.3076" width="34.0079" height="28.9951" filterUnits="userSpaceOnUse" color-interpolation-filters="sRGB">
<feFlood flood-opacity="0" result="BackgroundImageFix"/>
<feBlend mode="normal" in="SourceGraphic" in2="BackgroundImageFix" result="shape"/>
<feColorMatrix in="SourceAlpha" type="matrix" values="0 0 0 0 0 0 0 0 0 0 0 0 0 0 0 0 0 0 127 0" result="hardAlpha"/>
<feOffset dx="-6.06648" dy="-1.51662"/>
<feGaussianBlur stdDeviation="5.76315"/>
<feComposite in2="hardAlpha" operator="arithmetic" k2="-1" k3="1"/>
<feColorMatrix type="matrix" values="0 0 0 0 0.0915644 0 0 0 0 0.319641 0 0 0 0 0.726923 0 0 0 0.7 0"/>
<feBlend mode="normal" in2="shape" result="effect1_innerShadow_3447_10202"/>
</filter>
<filter id="filter8_f_3447_10202" x="1.77191" y="41.0212" width="15.714" height="17.7699" filterUnits="userSpaceOnUse" color-interpolation-filters="sRGB">
<feFlood flood-opacity="0" result="BackgroundImageFix"/>
<feBlend mode="normal" in="SourceGraphic" in2="BackgroundImageFix" result="shape"/>
<feGaussianBlur stdDeviation="2.47342" result="effect1_foregroundBlur_3447_10202"/>
</filter>
<radialGradient id="paint0_radial_3447_10202" cx="0" cy="0" r="1" gradientTransform="matrix(-3.53665 155.176 -135.05 -3.08195 77.6988 157.182)" gradientUnits="userSpaceOnUse">
<stop offset="0.140719" stop-color="#639FFF"/>
<stop offset="0.59456" stop-color="#A9B7C6"/>
<stop offset="1" stop-color="#C3D2E1"/>
</radialGradient>
<linearGradient id="paint1_linear_3447_10202" x1="73.5405" y1="65.0021" x2="66.8783" y2="55.8862" gradientUnits="userSpaceOnUse">
<stop stop-color="#146EFF"/>
<stop offset="0.658807" stop-color="#81B1FF"/>
<stop offset="1" stop-color="white"/>
</linearGradient>
<linearGradient id="paint2_linear_3447_10202" x1="54.5082" y1="115.416" x2="117.833" y2="156.39" gradientUnits="userSpaceOnUse">
<stop stop-color="#A1C2FF"/>
<stop offset="0.307692" stop-color="#146EFF"/>
<stop offset="1" stop-color="#2D6BDE"/>
</linearGradient>
<linearGradient id="paint3_linear_3447_10202" x1="125.28" y1="33.5796" x2="103.748" y2="41.6344" gradientUnits="userSpaceOnUse">
<stop stop-color="#A1C2FF"/>
<stop offset="0.307692" stop-color="#87B1FF"/>
<stop offset="1" stop-color="#4F76C0"/>
</linearGradient>
<linearGradient id="paint4_linear_3447_10202" x1="16.7314" y1="33.5796" x2="38.2635" y2="41.6344" gradientUnits="userSpaceOnUse">
<stop stop-color="#A1C2FF"/>
<stop offset="0.307692" stop-color="#87B1FF"/>
<stop offset="1" stop-color="#4F76C0"/>
</linearGradient>
</defs>
</svg>
