<svg width="139" height="140" viewBox="0 0 139 140" fill="none" xmlns="http://www.w3.org/2000/svg">
<g filter="url(#filter0_i_3447_10231)">
<path d="M78.1464 0.0587055C82.5056 0.0521707 86.0443 3.48003 86.0509 7.71541C86.0517 8.24289 85.9977 8.75801 85.8941 9.25569C85.6879 10.5986 85.0915 11.6231 84.3463 12.4837C83.9989 12.9099 83.6078 13.3008 83.1763 13.6466C81.6812 14.9586 80.078 15.9705 79.7292 17.5348L113.658 65.0858C116.688 69.3327 116.894 74.9777 114.181 79.4336L100.738 101.508C98.3769 105.386 94.1678 107.756 89.6278 107.763L49.163 107.825C44.663 107.832 40.4776 105.517 38.092 101.701L24.3088 79.6569C21.5043 75.171 21.69 69.4348 24.7785 65.1395L58.5232 18.2132C58.5237 16.2601 56.688 15.1659 54.9907 13.6854C54.5821 13.3591 54.2087 12.9931 53.8748 12.5944C53.0696 11.6885 52.427 10.5983 52.2366 9.13989C52.1534 8.6954 52.1073 8.23768 52.1066 7.76997C52.1002 3.53456 55.6289 0.0955553 59.9882 0.0887994C64.3475 0.0821433 67.8869 3.51015 67.8937 7.7455C67.8938 7.84123 67.8897 7.93677 67.8863 8.03165L67.888 9.13126C68.673 8.98814 69.4747 8.95765 70.2668 9.04163L70.2643 7.4762C70.2643 7.4762 70.2663 7.47482 70.2702 7.47326C70.4085 3.361 73.8789 0.0653192 78.1464 0.0587055Z" fill="url(#paint0_radial_3447_10231)"/>
</g>
<path d="M69.1094 8.10211C69.763 8.1011 70.2938 8.63019 70.2948 9.28387L70.3663 55.4044C70.369 57.1754 71.8345 58.5003 73.2785 59.5257C74.6172 60.4762 75.1186 61.9165 75.1206 63.2374C75.1239 65.4613 73.2833 68.1514 69.2649 68.1576C64.8176 68.1643 63.2531 65.4797 63.2495 63.2558C63.2475 61.9448 63.7876 60.5145 65.1425 59.5598C66.5759 58.5497 68.0019 57.2171 67.9992 55.4635L67.9276 9.28754C67.9266 8.63386 68.4557 8.10313 69.1094 8.10211Z" fill="white"/>
<g filter="url(#filter1_i_3447_10231)">
<ellipse cx="69.0905" cy="57.6365" rx="4.00615" ry="4.00612" transform="rotate(-0.0887943 69.0905 57.6365)" fill="url(#paint1_linear_3447_10231)"/>
</g>
<g opacity="0.8" filter="url(#filter2_f_3447_10231)">
<ellipse cx="87.2748" cy="59.6875" rx="6.64663" ry="4.60317" transform="rotate(-0.0887943 87.2748 59.6875)" fill="white"/>
</g>
<g opacity="0.8" filter="url(#filter3_f_3447_10231)">
<ellipse cx="51.5561" cy="59.7424" rx="6.64663" ry="4.60317" transform="rotate(-0.0887943 51.5561 59.7424)" fill="white"/>
</g>
<path d="M75.6941 50.7004C77.1318 50.1465 80.3024 49.4362 83.3701 52.37" stroke="#1D3156" stroke-width="2.06214" stroke-linecap="round"/>
<path d="M62.4392 50.9593C60.9543 50.5479 57.7298 50.1495 54.9621 53.3679" stroke="#1D3156" stroke-width="2.06214" stroke-linecap="round"/>
<g filter="url(#filter4_i_3447_10231)">
<path d="M46.9284 118.865C48.139 115.925 50.8639 113.886 54.0254 113.554L86.7147 110.118C89.8377 109.79 92.8934 111.179 94.6991 113.748L102.287 124.545C104.703 127.982 102.536 132.749 98.3577 133.188L47.6199 138.521C43.4723 138.957 40.3642 134.803 41.9524 130.947L46.9284 118.865Z" fill="url(#paint2_linear_3447_10231)"/>
</g>
<g filter="url(#filter5_i_3447_10231)">
<path d="M29.7321 51.0387C31.0532 54.1945 25.3806 58.4395 23.3062 59.1651C23.3062 59.1651 17.5092 65.3085 12.5629 63.7518C6.60544 61.8768 2.1261 52.3671 4.32757 46.5224C6.36772 41.106 12.5663 38.4972 17.9372 40.6544C22.2077 42.3698 24.0227 50.1798 24.8912 49.723C25.7597 49.2662 28.4111 47.8828 29.7321 51.0387Z" fill="url(#paint3_linear_3447_10231)"/>
</g>
<g filter="url(#filter6_i_3447_10231)">
<path d="M109.264 51.0387C107.943 54.1945 113.616 58.4395 115.69 59.1651C115.69 59.1651 121.487 65.3085 126.433 63.7518C132.391 61.8768 136.87 52.3671 134.669 46.5224C132.628 41.106 126.43 38.4972 121.059 40.6544C116.788 42.3698 114.973 50.1798 114.105 49.723C113.236 49.2662 110.585 47.8828 109.264 51.0387Z" fill="url(#paint4_linear_3447_10231)"/>
</g>
<g opacity="0.8" filter="url(#filter7_f_3447_10231)">
<ellipse cx="2.84999" cy="4.71006" rx="2.84999" ry="4.71006" transform="matrix(0.843675 -0.536854 0.536867 0.843667 123 44.0601)" fill="white" fill-opacity="0.9"/>
</g>
<g opacity="0.8" filter="url(#filter8_f_3447_10231)">
<ellipse cx="2.84999" cy="4.71006" rx="2.84999" ry="4.71006" transform="matrix(0.903519 0.428549 -0.428535 0.903525 9.03516 42)" fill="white" fill-opacity="0.9"/>
</g>
<defs>
<filter id="filter0_i_3447_10231" x="16.5772" y="-1.37902" width="99.5048" height="109.204" filterUnits="userSpaceOnUse" color-interpolation-filters="sRGB">
<feFlood flood-opacity="0" result="BackgroundImageFix"/>
<feBlend mode="normal" in="SourceGraphic" in2="BackgroundImageFix" result="shape"/>
<feColorMatrix in="SourceAlpha" type="matrix" values="0 0 0 0 0 0 0 0 0 0 0 0 0 0 0 0 0 0 127 0" result="hardAlpha"/>
<feOffset dx="-5.75093" dy="-1.43773"/>
<feGaussianBlur stdDeviation="5.46339"/>
<feComposite in2="hardAlpha" operator="arithmetic" k2="-1" k3="1"/>
<feColorMatrix type="matrix" values="0 0 0 0 0.588129 0 0 0 0 0.639333 0 0 0 0 0.730769 0 0 0 1 0"/>
<feBlend mode="normal" in2="shape" result="effect1_innerShadow_3447_10231"/>
</filter>
<filter id="filter1_i_3447_10231" x="63.6482" y="52.1926" width="9.44945" height="9.44994" filterUnits="userSpaceOnUse" color-interpolation-filters="sRGB">
<feFlood flood-opacity="0" result="BackgroundImageFix"/>
<feBlend mode="normal" in="SourceGraphic" in2="BackgroundImageFix" result="shape"/>
<feColorMatrix in="SourceAlpha" type="matrix" values="0 0 0 0 0 0 0 0 0 0 0 0 0 0 0 0 0 0 127 0" result="hardAlpha"/>
<feOffset dx="-1.43773" dy="-1.43773"/>
<feGaussianBlur stdDeviation="0.718867"/>
<feComposite in2="hardAlpha" operator="arithmetic" k2="-1" k3="1"/>
<feColorMatrix type="matrix" values="0 0 0 0 0.329412 0 0 0 0 0.517647 0 0 0 0 0.866667 0 0 0 1 0"/>
<feBlend mode="normal" in2="shape" result="effect1_innerShadow_3447_10231"/>
</filter>
<filter id="filter2_f_3447_10231" x="76.3157" y="50.7712" width="21.9194" height="17.8327" filterUnits="userSpaceOnUse" color-interpolation-filters="sRGB">
<feFlood flood-opacity="0" result="BackgroundImageFix"/>
<feBlend mode="normal" in="SourceGraphic" in2="BackgroundImageFix" result="shape"/>
<feGaussianBlur stdDeviation="2.1566" result="effect1_foregroundBlur_3447_10231"/>
</filter>
<filter id="filter3_f_3447_10231" x="40.597" y="50.8261" width="21.9194" height="17.8327" filterUnits="userSpaceOnUse" color-interpolation-filters="sRGB">
<feFlood flood-opacity="0" result="BackgroundImageFix"/>
<feBlend mode="normal" in="SourceGraphic" in2="BackgroundImageFix" result="shape"/>
<feGaussianBlur stdDeviation="2.1566" result="effect1_foregroundBlur_3447_10231"/>
</filter>
<filter id="filter4_i_3447_10231" x="35.6928" y="108.611" width="67.6041" height="29.9413" filterUnits="userSpaceOnUse" color-interpolation-filters="sRGB">
<feFlood flood-opacity="0" result="BackgroundImageFix"/>
<feBlend mode="normal" in="SourceGraphic" in2="BackgroundImageFix" result="shape"/>
<feColorMatrix in="SourceAlpha" type="matrix" values="0 0 0 0 0 0 0 0 0 0 0 0 0 0 0 0 0 0 127 0" result="hardAlpha"/>
<feOffset dx="-5.83844" dy="-1.45961"/>
<feGaussianBlur stdDeviation="5.54652"/>
<feComposite in2="hardAlpha" operator="arithmetic" k2="-1" k3="1"/>
<feColorMatrix type="matrix" values="0 0 0 0 0.0915644 0 0 0 0 0.319641 0 0 0 0 0.726923 0 0 0 0.7 0"/>
<feBlend mode="normal" in2="shape" result="effect1_innerShadow_3447_10231"/>
</filter>
<filter id="filter5_i_3447_10231" x="-2.08063" y="38.4381" width="32.0103" height="25.5664" filterUnits="userSpaceOnUse" color-interpolation-filters="sRGB">
<feFlood flood-opacity="0" result="BackgroundImageFix"/>
<feBlend mode="normal" in="SourceGraphic" in2="BackgroundImageFix" result="shape"/>
<feColorMatrix in="SourceAlpha" type="matrix" values="0 0 0 0 0 0 0 0 0 0 0 0 0 0 0 0 0 0 127 0" result="hardAlpha"/>
<feOffset dx="-5.83844" dy="-1.45961"/>
<feGaussianBlur stdDeviation="5.54652"/>
<feComposite in2="hardAlpha" operator="arithmetic" k2="-1" k3="1"/>
<feColorMatrix type="matrix" values="0 0 0 0 0.0915644 0 0 0 0 0.319641 0 0 0 0 0.726923 0 0 0 0.7 0"/>
<feBlend mode="normal" in2="shape" result="effect1_innerShadow_3447_10231"/>
</filter>
<filter id="filter6_i_3447_10231" x="103.228" y="38.4381" width="32.0103" height="25.5664" filterUnits="userSpaceOnUse" color-interpolation-filters="sRGB">
<feFlood flood-opacity="0" result="BackgroundImageFix"/>
<feBlend mode="normal" in="SourceGraphic" in2="BackgroundImageFix" result="shape"/>
<feColorMatrix in="SourceAlpha" type="matrix" values="0 0 0 0 0 0 0 0 0 0 0 0 0 0 0 0 0 0 127 0" result="hardAlpha"/>
<feOffset dx="-5.83844" dy="-1.45961"/>
<feGaussianBlur stdDeviation="5.54652"/>
<feComposite in2="hardAlpha" operator="arithmetic" k2="-1" k3="1"/>
<feColorMatrix type="matrix" values="0 0 0 0 0.0915644 0 0 0 0 0.319641 0 0 0 0 0.726923 0 0 0 0.7 0"/>
<feBlend mode="normal" in2="shape" result="effect1_innerShadow_3447_10231"/>
</filter>
<filter id="filter7_f_3447_10231" x="119.684" y="37.4836" width="16.4983" height="18.0403" filterUnits="userSpaceOnUse" color-interpolation-filters="sRGB">
<feFlood flood-opacity="0" result="BackgroundImageFix"/>
<feBlend mode="normal" in="SourceGraphic" in2="BackgroundImageFix" result="shape"/>
<feGaussianBlur stdDeviation="2.38044" result="effect1_foregroundBlur_3447_10231"/>
</filter>
<filter id="filter8_f_3447_10231" x="1.55943" y="38.2876" width="16.0647" height="18.3789" filterUnits="userSpaceOnUse" color-interpolation-filters="sRGB">
<feFlood flood-opacity="0" result="BackgroundImageFix"/>
<feBlend mode="normal" in="SourceGraphic" in2="BackgroundImageFix" result="shape"/>
<feGaussianBlur stdDeviation="2.38044" result="effect1_foregroundBlur_3447_10231"/>
</filter>
<radialGradient id="paint0_radial_3447_10231" cx="0" cy="0" r="1" gradientTransform="matrix(-3.19086 150.217 -130.74 -2.78076 76.4 152.215)" gradientUnits="userSpaceOnUse">
<stop offset="0.140719" stop-color="#639FFF"/>
<stop offset="0.59456" stop-color="#A9B7C6"/>
<stop offset="1" stop-color="#C3D2E1"/>
</radialGradient>
<linearGradient id="paint1_linear_3447_10231" x1="72.2402" y1="62.9948" x2="65.7913" y2="54.1703" gradientUnits="userSpaceOnUse">
<stop stop-color="#146EFF"/>
<stop offset="0.658807" stop-color="#81B1FF"/>
<stop offset="1" stop-color="white"/>
</linearGradient>
<linearGradient id="paint2_linear_3447_10231" x1="56.692" y1="113.274" x2="122.794" y2="146.818" gradientUnits="userSpaceOnUse">
<stop stop-color="#A1C2FF"/>
<stop offset="0.307692" stop-color="#146EFF"/>
<stop offset="1" stop-color="#2D6BDE"/>
</linearGradient>
<linearGradient id="paint3_linear_3447_10231" x1="25.0023" y1="41.2761" x2="39.5347" y2="61.5612" gradientUnits="userSpaceOnUse">
<stop stop-color="#A1C2FF"/>
<stop offset="0.307692" stop-color="#87B1FF"/>
<stop offset="1" stop-color="#4F76C0"/>
</linearGradient>
<linearGradient id="paint4_linear_3447_10231" x1="113.994" y1="41.2761" x2="105.254" y2="61.1827" gradientUnits="userSpaceOnUse">
<stop stop-color="#A1C2FF"/>
<stop offset="0.307692" stop-color="#87B1FF"/>
<stop offset="1" stop-color="#4F76C0"/>
</linearGradient>
</defs>
</svg>
