<svg width="160" height="160" viewBox="0 0 160 160" fill="none" xmlns="http://www.w3.org/2000/svg">
<g filter="url(#filter0_i_3447_10278)">
<path d="M37.7421 76.3619C41.0505 77.2719 40.891 84.376 40.1802 86.4623C40.1802 86.4623 41.4421 94.8393 37.1528 97.7801C31.9865 101.322 21.7088 98.9734 18.4578 93.6192C15.445 88.6574 17.2214 82.1506 22.2474 79.2462C26.2438 76.9368 33.5314 80.3369 33.7082 79.3688C33.8851 78.4006 34.4338 75.4518 37.7421 76.3619Z" fill="url(#paint0_linear_3447_10278)"/>
</g>
<g filter="url(#filter1_i_3447_10278)">
<path d="M55.3694 127.62C56.9071 124.774 59.8815 123 63.1163 123H96.5605C99.7558 123 102.7 124.731 104.254 127.523L110.785 139.256C112.864 142.991 110.163 147.585 105.889 147.585H53.9786C49.7351 147.585 47.0316 143.051 49.0488 139.318L55.3694 127.62Z" fill="url(#paint1_linear_3447_10278)"/>
</g>
<g filter="url(#filter2_i_3447_10278)">
<path d="M119.323 59.3551C118.001 62.5109 123.674 66.7559 125.748 67.4815C125.748 67.4815 131.546 73.6249 136.492 72.0682C142.449 70.1932 146.929 60.6835 144.727 54.8388C142.687 49.4224 136.488 46.8136 131.118 48.9708C126.847 50.6862 125.032 58.4962 124.164 58.0394C123.295 57.5826 120.644 56.1992 119.323 59.3551Z" fill="url(#paint2_linear_3447_10278)"/>
</g>
<g filter="url(#filter3_i_3447_10278)">
<path d="M89.0916 10.1473C93.4059 10.1589 96.8948 13.5662 96.8839 17.7579C96.8825 18.2816 96.8259 18.7932 96.7206 19.2868C96.5129 20.5914 95.9337 21.5901 95.2093 22.4292C94.8478 22.8751 94.4372 23.2809 93.9834 23.6379C92.512 24.9131 90.9473 25.9034 90.5905 27.4306L123.985 74.6535C126.967 78.8693 127.147 84.4571 124.443 88.8559L111.047 110.647C108.694 114.475 104.518 116.802 100.025 116.79L59.9759 116.683C55.5222 116.672 51.389 114.363 49.0439 110.577L35.4956 88.7022C32.7384 84.2506 32.9461 78.5737 36.0212 74.3354L69.6025 28.0486C69.6211 26.1191 67.8288 25.0278 66.1603 23.5668C65.7153 23.213 65.3126 22.8116 64.9574 22.3722C64.2158 21.51 63.6258 20.4814 63.4328 19.1308C63.3392 18.6577 63.2899 18.1693 63.2912 17.6695C63.3024 13.4776 66.8085 10.0891 71.1229 10.1004C75.3449 10.1117 78.7742 13.3745 78.9091 17.4425C78.9113 17.4434 78.9125 17.4443 78.913 17.4444L78.9126 17.5939C78.9131 17.6329 78.9153 17.6719 78.9152 17.711C78.9151 17.7502 78.9127 17.7892 78.9119 17.8282L78.9086 19.086C79.6837 18.947 80.475 18.9189 81.2565 19.0034L81.2598 17.7554C81.2598 17.7425 81.2589 17.7292 81.2589 17.7163C81.259 17.7033 81.2599 17.6903 81.26 17.6772L81.2606 17.4517C81.2606 17.4517 81.2621 17.4501 81.2655 17.4487C81.4216 13.3813 84.8694 10.136 89.0916 10.1473Z" fill="url(#paint3_radial_3447_10278)"/>
</g>
<path d="M80.125 18.0677C80.7717 18.0696 81.2945 18.5949 81.2928 19.2417L81.1708 65.0527C81.1663 66.7456 82.534 68.076 83.7993 69.2006C85.2956 70.5304 85.8419 72.6768 85.8368 74.6339C85.8285 77.7516 83.9926 81.5145 80.0157 81.5041C75.6136 81.4924 74.0795 77.7204 74.0878 74.6026C74.093 72.6551 74.7011 70.5233 76.2297 69.2001C77.4924 68.1071 78.8234 66.7878 78.8279 65.1177L78.95 19.2354C78.9517 18.5885 79.4781 18.0659 80.125 18.0677Z" fill="white"/>
<g filter="url(#filter4_i_3447_10278)">
<ellipse cx="79.8919" cy="67.0914" rx="3.96495" ry="3.96492" transform="rotate(0.152495 79.8919 67.0914)" fill="url(#paint4_linear_3447_10278)"/>
</g>
<g opacity="0.8" filter="url(#filter5_f_3447_10278)">
<ellipse cx="97.8825" cy="69.1947" rx="6.57827" ry="4.55583" transform="rotate(0.152495 97.8825 69.1947)" fill="white"/>
</g>
<g opacity="0.8" filter="url(#filter6_f_3447_10278)">
<ellipse cx="62.531" cy="69.1016" rx="6.57827" ry="4.55583" transform="rotate(0.152495 62.531 69.1016)" fill="white"/>
</g>
<ellipse cx="71.8034" cy="61.8539" rx="3.52373" ry="3.52371" transform="rotate(0.152495 71.8034 61.8539)" fill="#1D3156"/>
<ellipse cx="88.3034" cy="62.1017" rx="3.52373" ry="3.52371" transform="rotate(0.152495 88.3034 62.1017)" fill="#1D3156"/>
<path d="M85.1835 45.3231C86.1723 43.9811 89.2273 42.1102 93.5367 45.362" stroke="#1D3156" stroke-width="1.87156" stroke-linecap="round"/>
<path d="M74.6601 45.1639C73.7121 43.7928 70.7147 41.8309 66.3095 44.9516" stroke="#1D3156" stroke-width="1.87156" stroke-linecap="round"/>
<g opacity="0.8" filter="url(#filter7_f_3447_10278)">
<ellipse cx="2.53875" cy="4.1957" rx="2.53875" ry="4.1957" transform="matrix(0.861984 -0.506936 0.506949 0.861976 135.367 52.7666)" fill="white" fill-opacity="0.9"/>
</g>
<defs>
<filter id="filter0_i_3447_10278" x="11.1288" y="74.7258" width="29.4688" height="24.7403" filterUnits="userSpaceOnUse" color-interpolation-filters="sRGB">
<feFlood flood-opacity="0" result="BackgroundImageFix"/>
<feBlend mode="normal" in="SourceGraphic" in2="BackgroundImageFix" result="shape"/>
<feColorMatrix in="SourceAlpha" type="matrix" values="0 0 0 0 0 0 0 0 0 0 0 0 0 0 0 0 0 0 127 0" result="hardAlpha"/>
<feOffset dx="-5.85557" dy="-1.46389"/>
<feGaussianBlur stdDeviation="3.14737"/>
<feComposite in2="hardAlpha" operator="arithmetic" k2="-1" k3="1"/>
<feColorMatrix type="matrix" values="0 0 0 0 0.239978 0 0 0 0 0.443772 0 0 0 0 0.807692 0 0 0 0.7 0"/>
<feBlend mode="normal" in2="shape" result="effect1_innerShadow_3447_10278"/>
</filter>
<filter id="filter1_i_3447_10278" x="42.4264" y="121.515" width="69.0736" height="26.0702" filterUnits="userSpaceOnUse" color-interpolation-filters="sRGB">
<feFlood flood-opacity="0" result="BackgroundImageFix"/>
<feBlend mode="normal" in="SourceGraphic" in2="BackgroundImageFix" result="shape"/>
<feColorMatrix in="SourceAlpha" type="matrix" values="0 0 0 0 0 0 0 0 0 0 0 0 0 0 0 0 0 0 127 0" result="hardAlpha"/>
<feOffset dx="-5.94082" dy="-1.4852"/>
<feGaussianBlur stdDeviation="5.64377"/>
<feComposite in2="hardAlpha" operator="arithmetic" k2="-1" k3="1"/>
<feColorMatrix type="matrix" values="0 0 0 0 0.239978 0 0 0 0 0.443772 0 0 0 0 0.807692 0 0 0 0.7 0"/>
<feBlend mode="normal" in2="shape" result="effect1_innerShadow_3447_10278"/>
</filter>
<filter id="filter2_i_3447_10278" x="113.287" y="46.7545" width="32.0103" height="25.5663" filterUnits="userSpaceOnUse" color-interpolation-filters="sRGB">
<feFlood flood-opacity="0" result="BackgroundImageFix"/>
<feBlend mode="normal" in="SourceGraphic" in2="BackgroundImageFix" result="shape"/>
<feColorMatrix in="SourceAlpha" type="matrix" values="0 0 0 0 0 0 0 0 0 0 0 0 0 0 0 0 0 0 127 0" result="hardAlpha"/>
<feOffset dx="-5.83844" dy="-1.45961"/>
<feGaussianBlur stdDeviation="5.54652"/>
<feComposite in2="hardAlpha" operator="arithmetic" k2="-1" k3="1"/>
<feColorMatrix type="matrix" values="0 0 0 0 0.0915644 0 0 0 0 0.319641 0 0 0 0 0.726923 0 0 0 0.7 0"/>
<feBlend mode="normal" in2="shape" result="effect1_innerShadow_3447_10278"/>
</filter>
<filter id="filter3_i_3447_10278" x="27.8707" y="8.67752" width="98.4808" height="108.113" filterUnits="userSpaceOnUse" color-interpolation-filters="sRGB">
<feFlood flood-opacity="0" result="BackgroundImageFix"/>
<feBlend mode="normal" in="SourceGraphic" in2="BackgroundImageFix" result="shape"/>
<feColorMatrix in="SourceAlpha" type="matrix" values="0 0 0 0 0 0 0 0 0 0 0 0 0 0 0 0 0 0 127 0" result="hardAlpha"/>
<feOffset dx="-5.69179" dy="-1.42295"/>
<feGaussianBlur stdDeviation="5.4072"/>
<feComposite in2="hardAlpha" operator="arithmetic" k2="-1" k3="1"/>
<feColorMatrix type="matrix" values="0 0 0 0 0.588129 0 0 0 0 0.639333 0 0 0 0 0.730769 0 0 0 1 0"/>
<feBlend mode="normal" in2="shape" result="effect1_innerShadow_3447_10278"/>
</filter>
<filter id="filter4_i_3447_10278" x="74.5028" y="61.7035" width="9.35263" height="9.35288" filterUnits="userSpaceOnUse" color-interpolation-filters="sRGB">
<feFlood flood-opacity="0" result="BackgroundImageFix"/>
<feBlend mode="normal" in="SourceGraphic" in2="BackgroundImageFix" result="shape"/>
<feColorMatrix in="SourceAlpha" type="matrix" values="0 0 0 0 0 0 0 0 0 0 0 0 0 0 0 0 0 0 127 0" result="hardAlpha"/>
<feOffset dx="-1.42295" dy="-1.42295"/>
<feGaussianBlur stdDeviation="0.711473"/>
<feComposite in2="hardAlpha" operator="arithmetic" k2="-1" k3="1"/>
<feColorMatrix type="matrix" values="0 0 0 0 0.329412 0 0 0 0 0.517647 0 0 0 0 0.866667 0 0 0 1 0"/>
<feBlend mode="normal" in2="shape" result="effect1_innerShadow_3447_10278"/>
</filter>
<filter id="filter5_f_3447_10278" x="87.0358" y="60.3701" width="21.6939" height="17.6493" filterUnits="userSpaceOnUse" color-interpolation-filters="sRGB">
<feFlood flood-opacity="0" result="BackgroundImageFix"/>
<feBlend mode="normal" in="SourceGraphic" in2="BackgroundImageFix" result="shape"/>
<feGaussianBlur stdDeviation="2.13442" result="effect1_foregroundBlur_3447_10278"/>
</filter>
<filter id="filter6_f_3447_10278" x="51.6843" y="60.2771" width="21.6939" height="17.6493" filterUnits="userSpaceOnUse" color-interpolation-filters="sRGB">
<feFlood flood-opacity="0" result="BackgroundImageFix"/>
<feBlend mode="normal" in="SourceGraphic" in2="BackgroundImageFix" result="shape"/>
<feGaussianBlur stdDeviation="2.13442" result="effect1_foregroundBlur_3447_10278"/>
</filter>
<filter id="filter7_f_3447_10278" x="132.388" y="47.0154" width="14.5874" height="16.1616" filterUnits="userSpaceOnUse" color-interpolation-filters="sRGB">
<feFlood flood-opacity="0" result="BackgroundImageFix"/>
<feBlend mode="normal" in="SourceGraphic" in2="BackgroundImageFix" result="shape"/>
<feGaussianBlur stdDeviation="2.12049" result="effect1_foregroundBlur_3447_10278"/>
</filter>
<linearGradient id="paint0_linear_3447_10278" x1="27.1098" y1="74.0543" x2="59.0646" y2="101.574" gradientUnits="userSpaceOnUse">
<stop stop-color="#A1C2FF"/>
<stop offset="0.307692" stop-color="#87B1FF"/>
<stop offset="1" stop-color="#4F76C0"/>
</linearGradient>
<linearGradient id="paint1_linear_3447_10278" x1="65.8442" y1="123" x2="129.169" y2="163.974" gradientUnits="userSpaceOnUse">
<stop stop-color="#A1C2FF"/>
<stop offset="0.307692" stop-color="#146EFF"/>
<stop offset="1" stop-color="#2D6BDE"/>
</linearGradient>
<linearGradient id="paint2_linear_3447_10278" x1="124.052" y1="49.5925" x2="115.312" y2="69.4991" gradientUnits="userSpaceOnUse">
<stop stop-color="#A1C2FF"/>
<stop offset="0.307692" stop-color="#87B1FF"/>
<stop offset="1" stop-color="#4F76C0"/>
</linearGradient>
<radialGradient id="paint3_radial_3447_10278" cx="0" cy="0" r="1" gradientTransform="matrix(-3.78412 148.657 -129.383 -3.29704 86.7476 160.73)" gradientUnits="userSpaceOnUse">
<stop offset="0.140719" stop-color="#639FFF"/>
<stop offset="0.59456" stop-color="#A9B7C6"/>
<stop offset="1" stop-color="#C3D2E1"/>
</radialGradient>
<linearGradient id="paint4_linear_3447_10278" x1="83.0092" y1="72.3946" x2="76.6267" y2="63.6609" gradientUnits="userSpaceOnUse">
<stop stop-color="#146EFF"/>
<stop offset="0.658807" stop-color="#81B1FF"/>
<stop offset="1" stop-color="white"/>
</linearGradient>
</defs>
</svg>
