<svg width="160" height="160" viewBox="0 0 160 160" fill="none" xmlns="http://www.w3.org/2000/svg">
<g filter="url(#filter0_i_3447_10254)">
<path d="M36.7421 76.3619C40.0505 77.2719 39.891 84.376 39.1802 86.4623C39.1802 86.4623 40.4421 94.8393 36.1528 97.7801C30.9865 101.322 20.7088 98.9734 17.4578 93.6192C14.445 88.6574 16.2214 82.1506 21.2474 79.2462C25.2438 76.9368 32.5314 80.3369 32.7082 79.3688C32.8851 78.4006 33.4338 75.4518 36.7421 76.3619Z" fill="url(#paint0_linear_3447_10254)"/>
</g>
<g filter="url(#filter1_i_3447_10254)">
<path d="M88.2588 10C92.7227 10 96.3418 13.5162 96.3418 17.8535C96.3418 18.3989 96.2837 18.9312 96.1748 19.4453C95.9618 20.795 95.3644 21.8295 94.6162 22.6992C94.2493 23.153 93.8334 23.5673 93.374 23.9326C91.8491 25.2642 90.2197 26.2944 89.8555 27.8838L124.53 76.6445C127.626 80.998 127.827 86.7786 125.042 91.3369L111.243 113.92C108.819 117.887 104.505 120.307 99.8555 120.307H58.4229C53.8149 120.307 49.5324 117.93 47.0957 114.019L33.0186 91.4229C30.1539 86.825 30.353 80.9519 33.5225 76.5586L68.1475 28.5615C68.1515 26.5671 66.2841 25.4446 64.5527 23.9326C64.0934 23.5672 63.6774 23.153 63.3105 22.6992C62.5625 21.8295 61.9649 20.7948 61.752 19.4453C61.643 18.9313 61.5859 18.3989 61.5859 17.8535C61.5859 13.5164 65.2043 10.0002 69.668 10C74.0366 10 77.5933 13.3679 77.7432 17.5771C77.7478 17.579 77.7505 17.5799 77.751 17.5801V19.2744C78.5516 19.1296 79.3691 19.0998 80.1768 19.1855V17.5801C80.1774 17.5798 80.1796 17.5787 80.1836 17.5771C80.3334 13.368 83.8903 10.0002 88.2588 10Z" fill="url(#paint1_radial_3447_10254)"/>
</g>
<path d="M79.1445 18C79.8198 18 80.3672 18.5474 80.3672 19.2227V67.3107C80.3672 69.288 81.9696 70.8528 83.9426 70.9826C86.9923 71.1831 89.0654 71.7936 89.0654 73.6465C89.0654 76.3313 84.713 80.6053 79.3438 80.6055C73.9744 80.6055 69.6211 76.3313 69.6211 73.6465C69.6211 71.873 71.5205 71.2377 74.3577 71.0106C76.3248 70.8531 77.9219 69.2959 77.9219 67.3225V19.2227C77.9219 18.5474 78.4693 18 79.1445 18Z" fill="white"/>
<g filter="url(#filter2_i_3447_10254)">
<ellipse cx="79.0368" cy="69.1674" rx="4.13838" ry="4.13859" fill="url(#paint2_linear_3447_10254)"/>
</g>
<g opacity="0.8" filter="url(#filter3_f_3447_10254)">
<ellipse cx="97.8231" cy="71.3143" rx="6.86602" ry="4.75538" fill="white"/>
</g>
<g opacity="0.8" filter="url(#filter4_f_3447_10254)">
<ellipse cx="60.9207" cy="71.3143" rx="6.86602" ry="4.75538" fill="white"/>
</g>
<ellipse cx="70.3029" cy="63.9133" rx="3.67787" ry="3.67805" fill="#1D3156"/>
<path d="M85.0015 63.5001C85.9804 63.1494 89.4144 62.0994 92.5164 65.1827" stroke="#1D3156" stroke-width="1.60991" stroke-linecap="round"/>
<g filter="url(#filter5_i_3447_10254)">
<path d="M119.491 59.1402C118.169 62.2961 123.842 66.541 125.916 67.2667C125.916 67.2667 131.714 73.41 136.66 71.8533C142.617 69.9783 147.097 60.4687 144.895 54.624C142.855 49.2076 136.656 46.5987 131.286 48.756C127.015 50.4713 125.2 58.2814 124.331 57.8246C123.463 57.3678 120.812 55.9844 119.491 59.1402Z" fill="url(#paint3_linear_3447_10254)"/>
</g>
<g filter="url(#filter6_i_3447_10254)">
<path d="M54.7874 129.62C56.3251 126.774 59.2994 125 62.5342 125H95.9785C99.1738 125 102.118 126.731 103.672 129.523L110.203 141.256C112.282 144.991 109.581 149.585 105.307 149.585H53.3965C49.1531 149.585 46.4496 145.051 48.4667 141.318L54.7874 129.62Z" fill="url(#paint4_linear_3447_10254)"/>
</g>
<g opacity="0.8" filter="url(#filter7_f_3447_10254)">
<ellipse cx="2.53435" cy="4.18844" rx="2.53435" ry="4.18844" transform="matrix(-0.743352 0.6689 0.668883 0.743367 138.164 49.0616)" fill="white" fill-opacity="0.9"/>
</g>
<defs>
<filter id="filter0_i_3447_10254" x="10.1288" y="74.7259" width="29.4688" height="24.7401" filterUnits="userSpaceOnUse" color-interpolation-filters="sRGB">
<feFlood flood-opacity="0" result="BackgroundImageFix"/>
<feBlend mode="normal" in="SourceGraphic" in2="BackgroundImageFix" result="shape"/>
<feColorMatrix in="SourceAlpha" type="matrix" values="0 0 0 0 0 0 0 0 0 0 0 0 0 0 0 0 0 0 127 0" result="hardAlpha"/>
<feOffset dx="-5.85557" dy="-1.46389"/>
<feGaussianBlur stdDeviation="3.14737"/>
<feComposite in2="hardAlpha" operator="arithmetic" k2="-1" k3="1"/>
<feColorMatrix type="matrix" values="0 0 0 0 0.239978 0 0 0 0 0.443772 0 0 0 0 0.807692 0 0 0 0.7 0"/>
<feBlend mode="normal" in2="shape" result="effect1_innerShadow_3447_10254"/>
</filter>
<filter id="filter1_i_3447_10254" x="25.1112" y="8.52781" width="101.889" height="111.779" filterUnits="userSpaceOnUse" color-interpolation-filters="sRGB">
<feFlood flood-opacity="0" result="BackgroundImageFix"/>
<feBlend mode="normal" in="SourceGraphic" in2="BackgroundImageFix" result="shape"/>
<feColorMatrix in="SourceAlpha" type="matrix" values="0 0 0 0 0 0 0 0 0 0 0 0 0 0 0 0 0 0 127 0" result="hardAlpha"/>
<feOffset dx="-5.88877" dy="-1.47219"/>
<feGaussianBlur stdDeviation="5.59433"/>
<feComposite in2="hardAlpha" operator="arithmetic" k2="-1" k3="1"/>
<feColorMatrix type="matrix" values="0 0 0 0 0.588129 0 0 0 0 0.639333 0 0 0 0 0.730769 0 0 0 1 0"/>
<feBlend mode="normal" in2="shape" result="effect1_innerShadow_3447_10254"/>
</filter>
<filter id="filter2_i_3447_10254" x="73.4132" y="63.5436" width="9.76255" height="9.76243" filterUnits="userSpaceOnUse" color-interpolation-filters="sRGB">
<feFlood flood-opacity="0" result="BackgroundImageFix"/>
<feBlend mode="normal" in="SourceGraphic" in2="BackgroundImageFix" result="shape"/>
<feColorMatrix in="SourceAlpha" type="matrix" values="0 0 0 0 0 0 0 0 0 0 0 0 0 0 0 0 0 0 127 0" result="hardAlpha"/>
<feOffset dx="-1.4852" dy="-1.4852"/>
<feGaussianBlur stdDeviation="0.742602"/>
<feComposite in2="hardAlpha" operator="arithmetic" k2="-1" k3="1"/>
<feColorMatrix type="matrix" values="0 0 0 0 0.329412 0 0 0 0 0.517647 0 0 0 0 0.866667 0 0 0 1 0"/>
<feBlend mode="normal" in2="shape" result="effect1_innerShadow_3447_10254"/>
</filter>
<filter id="filter3_f_3447_10254" x="86.5014" y="62.1033" width="22.6417" height="18.422" filterUnits="userSpaceOnUse" color-interpolation-filters="sRGB">
<feFlood flood-opacity="0" result="BackgroundImageFix"/>
<feBlend mode="normal" in="SourceGraphic" in2="BackgroundImageFix" result="shape"/>
<feGaussianBlur stdDeviation="2.22781" result="effect1_foregroundBlur_3447_10254"/>
</filter>
<filter id="filter4_f_3447_10254" x="49.5991" y="62.1033" width="22.6417" height="18.422" filterUnits="userSpaceOnUse" color-interpolation-filters="sRGB">
<feFlood flood-opacity="0" result="BackgroundImageFix"/>
<feBlend mode="normal" in="SourceGraphic" in2="BackgroundImageFix" result="shape"/>
<feGaussianBlur stdDeviation="2.22781" result="effect1_foregroundBlur_3447_10254"/>
</filter>
<filter id="filter5_i_3447_10254" x="113.455" y="46.5397" width="32.0103" height="25.5664" filterUnits="userSpaceOnUse" color-interpolation-filters="sRGB">
<feFlood flood-opacity="0" result="BackgroundImageFix"/>
<feBlend mode="normal" in="SourceGraphic" in2="BackgroundImageFix" result="shape"/>
<feColorMatrix in="SourceAlpha" type="matrix" values="0 0 0 0 0 0 0 0 0 0 0 0 0 0 0 0 0 0 127 0" result="hardAlpha"/>
<feOffset dx="-5.83844" dy="-1.45961"/>
<feGaussianBlur stdDeviation="5.54652"/>
<feComposite in2="hardAlpha" operator="arithmetic" k2="-1" k3="1"/>
<feColorMatrix type="matrix" values="0 0 0 0 0.0915644 0 0 0 0 0.319641 0 0 0 0 0.726923 0 0 0 0.7 0"/>
<feBlend mode="normal" in2="shape" result="effect1_innerShadow_3447_10254"/>
</filter>
<filter id="filter6_i_3447_10254" x="41.8443" y="123.515" width="69.0736" height="26.07" filterUnits="userSpaceOnUse" color-interpolation-filters="sRGB">
<feFlood flood-opacity="0" result="BackgroundImageFix"/>
<feBlend mode="normal" in="SourceGraphic" in2="BackgroundImageFix" result="shape"/>
<feColorMatrix in="SourceAlpha" type="matrix" values="0 0 0 0 0 0 0 0 0 0 0 0 0 0 0 0 0 0 127 0" result="hardAlpha"/>
<feOffset dx="-5.94082" dy="-1.4852"/>
<feGaussianBlur stdDeviation="5.64377"/>
<feComposite in2="hardAlpha" operator="arithmetic" k2="-1" k3="1"/>
<feColorMatrix type="matrix" values="0 0 0 0 0.239978 0 0 0 0 0.443772 0 0 0 0 0.807692 0 0 0 0.7 0"/>
<feBlend mode="normal" in2="shape" result="effect1_innerShadow_3447_10254"/>
</filter>
<filter id="filter7_f_3447_10254" x="130.76" y="45.3777" width="16.6437" height="16.9854" filterUnits="userSpaceOnUse" color-interpolation-filters="sRGB">
<feFlood flood-opacity="0" result="BackgroundImageFix"/>
<feBlend mode="normal" in="SourceGraphic" in2="BackgroundImageFix" result="shape"/>
<feGaussianBlur stdDeviation="2.47342" result="effect1_foregroundBlur_3447_10254"/>
</filter>
<linearGradient id="paint0_linear_3447_10254" x1="26.1098" y1="74.0543" x2="58.0646" y2="101.574" gradientUnits="userSpaceOnUse">
<stop stop-color="#A1C2FF"/>
<stop offset="0.307692" stop-color="#87B1FF"/>
<stop offset="1" stop-color="#4F76C0"/>
</linearGradient>
<radialGradient id="paint1_radial_3447_10254" cx="0" cy="0" r="1" gradientTransform="matrix(-3.50565 153.816 -133.866 -3.05496 86.2414 165.805)" gradientUnits="userSpaceOnUse">
<stop offset="0.140719" stop-color="#639FFF"/>
<stop offset="0.59456" stop-color="#A9B7C6"/>
<stop offset="1" stop-color="#C3D2E1"/>
</radialGradient>
<linearGradient id="paint2_linear_3447_10254" x1="82.2905" y1="74.7028" x2="75.6283" y2="65.5869" gradientUnits="userSpaceOnUse">
<stop stop-color="#146EFF"/>
<stop offset="0.658807" stop-color="#81B1FF"/>
<stop offset="1" stop-color="white"/>
</linearGradient>
<linearGradient id="paint3_linear_3447_10254" x1="124.22" y1="49.3776" x2="115.48" y2="69.2843" gradientUnits="userSpaceOnUse">
<stop stop-color="#A1C2FF"/>
<stop offset="0.307692" stop-color="#87B1FF"/>
<stop offset="1" stop-color="#4F76C0"/>
</linearGradient>
<linearGradient id="paint4_linear_3447_10254" x1="65.2621" y1="125" x2="128.587" y2="165.974" gradientUnits="userSpaceOnUse">
<stop stop-color="#A1C2FF"/>
<stop offset="0.307692" stop-color="#146EFF"/>
<stop offset="1" stop-color="#2D6BDE"/>
</linearGradient>
</defs>
</svg>
