<svg width="55" height="52" viewBox="0 0 55 52" fill="none" xmlns="http://www.w3.org/2000/svg">
<path d="M23.9538 5.31333C25.6416 2.7844 29.3584 2.7844 31.0462 5.31333L36.4712 13.4416C37.1527 14.4626 38.1785 15.2046 39.3615 15.5322L48.7774 18.1393C51.725 18.9554 52.8799 22.518 50.9717 24.9082L44.9201 32.4887C44.1495 33.4539 43.7541 34.6654 43.8069 35.8994L44.2217 45.5916C44.352 48.6362 41.3387 50.8305 38.4811 49.772L29.2772 46.3627C28.1305 45.9379 26.8696 45.9379 25.7229 46.3627L16.5189 49.772C13.6613 50.8305 10.648 48.6362 10.7783 45.5916L11.1931 35.8994C11.2459 34.6654 10.8505 33.454 10.0799 32.4887L4.02829 24.9082C2.12013 22.518 3.275 18.9554 6.22258 18.1393L15.6385 15.5322C16.8215 15.2046 17.8473 14.4626 18.5288 13.4416L23.9538 5.31333Z" fill="#FFF294" fill-opacity="0.35"/>
</svg>
